<svg width="450" height="400" viewBox="0 0 450 400" fill="none" xmlns="http://www.w3.org/2000/svg">
<rect width="450" height="400" rx="15" fill="#0041BF"/>
<path d="M42.2273 49.0909H46.3864V76.5682H46.7273L65.8182 49.0909H69.9091V84H65.6818V56.5909H65.3409L46.3182 84H42.2273V49.0909ZM95.3452 69.0682V72.8182H80.8906V69.0682H95.3452ZM81.8452 57.8182V84H77.8224V57.8182H81.8452ZM98.4134 57.8182V84H94.3906V57.8182H98.4134ZM102.197 61.5682V57.8182H123.47V61.5682H114.879V84H110.857V61.5682H102.197ZM138.956 84.5455C136.433 84.5455 134.257 83.9886 132.428 82.875C130.609 81.75 129.206 80.1818 128.217 78.1705C127.24 76.1477 126.751 73.7955 126.751 71.1136C126.751 68.4318 127.24 66.0682 128.217 64.0227C129.206 61.9659 130.581 60.3636 132.342 59.2159C134.115 58.0568 136.183 57.4773 138.547 57.4773C139.911 57.4773 141.257 57.7045 142.587 58.1591C143.916 58.6136 145.126 59.3523 146.217 60.375C147.308 61.3864 148.178 62.7273 148.825 64.3977C149.473 66.0682 149.797 68.125 149.797 70.5682V72.2727H129.615V68.7955H145.706C145.706 67.3182 145.411 66 144.82 64.8409C144.24 63.6818 143.411 62.767 142.331 62.0966C141.263 61.4261 140.001 61.0909 138.547 61.0909C136.945 61.0909 135.558 61.4886 134.388 62.2841C133.229 63.0682 132.337 64.0909 131.712 65.3523C131.087 66.6136 130.774 67.9659 130.774 69.4091V71.7273C130.774 73.7045 131.115 75.3807 131.797 76.7557C132.49 78.1193 133.45 79.1591 134.678 79.875C135.905 80.5795 137.331 80.9318 138.956 80.9318C140.013 80.9318 140.967 80.7841 141.82 80.4886C142.683 80.1818 143.428 79.7273 144.053 79.125C144.678 78.5114 145.161 77.75 145.501 76.8409L149.388 77.9318C148.979 79.25 148.291 80.4091 147.325 81.4091C146.359 82.3977 145.166 83.1705 143.746 83.7273C142.325 84.2727 140.729 84.5455 138.956 84.5455ZM172.075 57.8182V61.5682H159.939V84H155.916V57.8182H172.075ZM177.947 93.8182V57.8182H181.834V61.9773H182.311C182.607 61.5227 183.016 60.9432 183.538 60.2386C184.072 59.5227 184.834 58.8864 185.822 58.3295C186.822 57.7614 188.175 57.4773 189.879 57.4773C192.084 57.4773 194.027 58.0284 195.709 59.1307C197.391 60.233 198.703 61.7955 199.646 63.8182C200.589 65.8409 201.061 68.2273 201.061 70.9773C201.061 73.75 200.589 76.1534 199.646 78.1875C198.703 80.2102 197.396 81.7784 195.726 82.892C194.055 83.9943 192.129 84.5455 189.947 84.5455C188.266 84.5455 186.919 84.267 185.908 83.7102C184.896 83.142 184.118 82.5 183.572 81.7841C183.027 81.0568 182.607 80.4545 182.311 79.9773H181.97V93.8182H177.947ZM181.902 70.9091C181.902 72.8864 182.192 74.6307 182.771 76.142C183.351 77.642 184.197 78.8182 185.311 79.6705C186.425 80.5114 187.788 80.9318 189.402 80.9318C191.084 80.9318 192.487 80.4886 193.612 79.6023C194.749 78.7045 195.601 77.5 196.169 75.9886C196.749 74.4659 197.038 72.7727 197.038 70.9091C197.038 69.0682 196.754 67.4091 196.186 65.9318C195.629 64.4432 194.783 63.267 193.646 62.4034C192.521 61.5284 191.107 61.0909 189.402 61.0909C187.766 61.0909 186.391 61.5057 185.277 62.3352C184.163 63.1534 183.322 64.3011 182.754 65.7784C182.186 67.2443 181.902 68.9545 181.902 70.9091ZM214.902 84.6136C213.243 84.6136 211.737 84.3011 210.385 83.6761C209.033 83.0398 207.959 82.125 207.163 80.9318C206.368 79.7273 205.97 78.2727 205.97 76.5682C205.97 75.0682 206.266 73.8523 206.857 72.9205C207.447 71.9773 208.237 71.2386 209.226 70.7045C210.214 70.1705 211.305 69.7727 212.499 69.5114C213.703 69.2386 214.913 69.0227 216.129 68.8636C217.72 68.6591 219.01 68.5057 219.999 68.4034C220.999 68.2898 221.726 68.1023 222.18 67.8409C222.646 67.5795 222.879 67.125 222.879 66.4773V66.3409C222.879 64.6591 222.419 63.3523 221.499 62.4205C220.589 61.4886 219.209 61.0227 217.357 61.0227C215.436 61.0227 213.93 61.4432 212.839 62.2841C211.749 63.125 210.982 64.0227 210.538 64.9773L206.72 63.6136C207.402 62.0227 208.311 60.7841 209.447 59.8977C210.595 59 211.845 58.375 213.197 58.0227C214.561 57.6591 215.902 57.4773 217.22 57.4773C218.061 57.4773 219.027 57.5795 220.118 57.7841C221.22 57.9773 222.283 58.3807 223.305 58.9943C224.339 59.608 225.197 60.5341 225.879 61.7727C226.561 63.0114 226.902 64.6705 226.902 66.75V84H222.879V80.4545H222.675C222.402 81.0227 221.947 81.6307 221.311 82.2784C220.675 82.9261 219.828 83.4773 218.771 83.9318C217.714 84.3864 216.425 84.6136 214.902 84.6136ZM215.516 81C217.107 81 218.447 80.6875 219.538 80.0625C220.641 79.4375 221.47 78.6307 222.027 77.642C222.595 76.6534 222.879 75.6136 222.879 74.5227V70.8409C222.709 71.0455 222.334 71.233 221.754 71.4034C221.186 71.5625 220.527 71.7045 219.777 71.8295C219.038 71.9432 218.317 72.0455 217.612 72.1364C216.919 72.2159 216.357 72.2841 215.925 72.3409C214.879 72.4773 213.902 72.6989 212.993 73.0057C212.095 73.3011 211.368 73.75 210.811 74.3523C210.266 74.9432 209.993 75.75 209.993 76.7727C209.993 78.1705 210.51 79.2273 211.544 79.9432C212.589 80.6477 213.913 81 215.516 81ZM254.835 57.8182V80.25H258.517V92.4545H254.494V84H234.244V57.8182H238.267V80.25H250.812V57.8182H254.835ZM268.736 78.0682L281.349 57.8182H285.986V84H281.963V63.75L269.418 84H264.713V57.8182H268.736V78.0682ZM309.104 84V61.5H302.149C300.581 61.5 299.348 61.8636 298.45 62.5909C297.553 63.3182 297.104 64.3182 297.104 65.5909C297.104 66.8409 297.507 67.8239 298.314 68.5398C299.132 69.2557 300.251 69.6136 301.672 69.6136H310.126V73.3636H301.672C299.899 73.3636 298.371 73.0511 297.087 72.4261C295.803 71.8011 294.814 70.9091 294.121 69.75C293.428 68.5795 293.081 67.1932 293.081 65.5909C293.081 63.9773 293.445 62.5909 294.172 61.4318C294.899 60.2727 295.939 59.3807 297.291 58.7557C298.655 58.1307 300.274 57.8182 302.149 57.8182H312.922V84H309.104ZM291.649 84L299.081 70.9773H303.445L296.013 84H291.649ZM344.443 84.5455C341.989 84.5455 339.875 83.9659 338.102 82.8068C336.33 81.6477 334.966 80.0511 334.011 78.017C333.057 75.983 332.58 73.6591 332.58 71.0455C332.58 68.3864 333.068 66.0398 334.045 64.0057C335.034 61.9602 336.409 60.3636 338.17 59.2159C339.943 58.0568 342.011 57.4773 344.375 57.4773C346.216 57.4773 347.875 57.8182 349.352 58.5C350.83 59.1818 352.04 60.1364 352.983 61.3636C353.926 62.5909 354.511 64.0227 354.739 65.6591H350.716C350.409 64.4659 349.727 63.4091 348.67 62.4886C347.625 61.5568 346.216 61.0909 344.443 61.0909C342.875 61.0909 341.5 61.5 340.318 62.3182C339.148 63.125 338.233 64.267 337.574 65.7443C336.926 67.2102 336.602 68.9318 336.602 70.9091C336.602 72.9318 336.92 74.6932 337.557 76.1932C338.205 77.6932 339.114 78.858 340.284 79.6875C341.466 80.517 342.852 80.9318 344.443 80.9318C345.489 80.9318 346.438 80.75 347.29 80.3864C348.142 80.0227 348.864 79.5 349.455 78.8182C350.045 78.1364 350.466 77.3182 350.716 76.3636H354.739C354.511 77.9091 353.949 79.3011 353.051 80.5398C352.165 81.767 350.989 82.7443 349.523 83.4716C348.068 84.1875 346.375 84.5455 344.443 84.5455ZM53.8864 107.091V142H49.6591V111.523H49.4545L40.9318 117.182V112.886L49.6591 107.091H53.8864ZM92.6307 118H88.4034C88.1534 116.784 87.7159 115.716 87.0909 114.795C86.4773 113.875 85.7273 113.102 84.8409 112.477C83.9659 111.841 82.9943 111.364 81.9261 111.045C80.858 110.727 79.7443 110.568 78.5852 110.568C76.4716 110.568 74.5568 111.102 72.8409 112.17C71.1364 113.239 69.7784 114.812 68.767 116.892C67.767 118.972 67.267 121.523 67.267 124.545C67.267 127.568 67.767 130.119 68.767 132.199C69.7784 134.278 71.1364 135.852 72.8409 136.92C74.5568 137.989 76.4716 138.523 78.5852 138.523C79.7443 138.523 80.858 138.364 81.9261 138.045C82.9943 137.727 83.9659 137.256 84.8409 136.631C85.7273 135.994 86.4773 135.216 87.0909 134.295C87.7159 133.364 88.1534 132.295 88.4034 131.091H92.6307C92.3125 132.875 91.733 134.472 90.892 135.881C90.0511 137.29 89.0057 138.489 87.7557 139.477C86.5057 140.455 85.1023 141.199 83.5455 141.71C82 142.222 80.3466 142.477 78.5852 142.477C75.608 142.477 72.9602 141.75 70.642 140.295C68.3239 138.841 66.5 136.773 65.1705 134.091C63.8409 131.409 63.1761 128.227 63.1761 124.545C63.1761 120.864 63.8409 117.682 65.1705 115C66.5 112.318 68.3239 110.25 70.642 108.795C72.9602 107.341 75.608 106.614 78.5852 106.614C80.3466 106.614 82 106.869 83.5455 107.381C85.1023 107.892 86.5057 108.642 87.7557 109.631C89.0057 110.608 90.0511 111.801 90.892 113.21C91.733 114.608 92.3125 116.205 92.6307 118ZM116.439 136.068L129.053 115.818H133.689V142H129.666V121.75L117.121 142H112.416V115.818H116.439V136.068ZM151.761 149.5V138.25H153.943C154.477 137.693 154.938 137.091 155.324 136.443C155.71 135.795 156.045 135.028 156.33 134.142C156.625 133.244 156.875 132.153 157.08 130.869C157.284 129.574 157.466 128.011 157.625 126.182L158.511 115.818H175.148V138.25H179.17V149.5H175.148V142H155.784V149.5H151.761ZM158.511 138.25H171.125V119.568H162.261L161.58 126.182C161.295 128.92 160.943 131.312 160.523 133.358C160.102 135.403 159.432 137.034 158.511 138.25ZM184.51 151.818V115.818H188.396V119.977H188.874C189.169 119.523 189.578 118.943 190.101 118.239C190.635 117.523 191.396 116.886 192.385 116.33C193.385 115.761 194.737 115.477 196.442 115.477C198.646 115.477 200.589 116.028 202.271 117.131C203.953 118.233 205.266 119.795 206.209 121.818C207.152 123.841 207.624 126.227 207.624 128.977C207.624 131.75 207.152 134.153 206.209 136.188C205.266 138.21 203.959 139.778 202.288 140.892C200.618 141.994 198.692 142.545 196.51 142.545C194.828 142.545 193.482 142.267 192.47 141.71C191.459 141.142 190.68 140.5 190.135 139.784C189.589 139.057 189.169 138.455 188.874 137.977H188.533V151.818H184.51ZM188.464 128.909C188.464 130.886 188.754 132.631 189.334 134.142C189.913 135.642 190.76 136.818 191.874 137.67C192.987 138.511 194.351 138.932 195.964 138.932C197.646 138.932 199.05 138.489 200.175 137.602C201.311 136.705 202.163 135.5 202.732 133.989C203.311 132.466 203.601 130.773 203.601 128.909C203.601 127.068 203.317 125.409 202.749 123.932C202.192 122.443 201.345 121.267 200.209 120.403C199.084 119.528 197.669 119.091 195.964 119.091C194.328 119.091 192.953 119.506 191.839 120.335C190.726 121.153 189.885 122.301 189.317 123.778C188.749 125.244 188.464 126.955 188.464 128.909ZM215.413 151.818C214.732 151.818 214.124 151.761 213.589 151.648C213.055 151.545 212.686 151.443 212.482 151.341L213.504 147.795C214.482 148.045 215.345 148.136 216.095 148.068C216.845 148 217.51 147.665 218.089 147.062C218.68 146.472 219.22 145.511 219.709 144.182L220.459 142.136L210.777 115.818H215.141L222.368 136.682H222.641L229.868 115.818H234.232L223.118 145.818C222.618 147.17 221.999 148.29 221.26 149.176C220.521 150.074 219.663 150.739 218.686 151.17C217.72 151.602 216.629 151.818 215.413 151.818ZM255.7 115.818V119.568H243.564V142H239.541V115.818H255.7ZM265.595 136.068L278.209 115.818H282.845V142H278.822V121.75L266.277 142H261.572V115.818H265.595V136.068ZM304.531 136.545L313.668 115.818H317.486L306.168 142H302.895L291.781 115.818H295.531L304.531 136.545ZM294.236 115.818V142H290.213V115.818H294.236ZM314.827 142V115.818H318.849V142H314.827ZM330.236 136.068L342.849 115.818H347.486V142H343.463V121.75L330.918 142H326.213V115.818H330.236V136.068ZM52.3182 200.545C49.8636 200.545 47.75 199.966 45.9773 198.807C44.2045 197.648 42.8409 196.051 41.8864 194.017C40.9318 191.983 40.4545 189.659 40.4545 187.045C40.4545 184.386 40.9432 182.04 41.9205 180.006C42.9091 177.96 44.2841 176.364 46.0455 175.216C47.8182 174.057 49.8864 173.477 52.25 173.477C54.0909 173.477 55.75 173.818 57.2273 174.5C58.7045 175.182 59.9148 176.136 60.858 177.364C61.8011 178.591 62.3864 180.023 62.6136 181.659H58.5909C58.2841 180.466 57.6023 179.409 56.5455 178.489C55.5 177.557 54.0909 177.091 52.3182 177.091C50.75 177.091 49.375 177.5 48.1932 178.318C47.0227 179.125 46.108 180.267 45.4489 181.744C44.8011 183.21 44.4773 184.932 44.4773 186.909C44.4773 188.932 44.7955 190.693 45.4318 192.193C46.0795 193.693 46.9886 194.858 48.1591 195.688C49.3409 196.517 50.7273 196.932 52.3182 196.932C53.3636 196.932 54.3125 196.75 55.1648 196.386C56.017 196.023 56.7386 195.5 57.3295 194.818C57.9205 194.136 58.3409 193.318 58.5909 192.364H62.6136C62.3864 193.909 61.8239 195.301 60.9261 196.54C60.0398 197.767 58.8636 198.744 57.3977 199.472C55.9432 200.188 54.25 200.545 52.3182 200.545ZM72.517 194.068L85.1307 173.818H89.767V200H85.7443V179.75L73.1989 200H68.4943V173.818H72.517V194.068ZM107.771 200.545C105.317 200.545 103.203 199.966 101.43 198.807C99.6577 197.648 98.294 196.051 97.3395 194.017C96.3849 191.983 95.9077 189.659 95.9077 187.045C95.9077 184.386 96.3963 182.04 97.3736 180.006C98.3622 177.96 99.7372 176.364 101.499 175.216C103.271 174.057 105.339 173.477 107.703 173.477C109.544 173.477 111.203 173.818 112.68 174.5C114.158 175.182 115.368 176.136 116.311 177.364C117.254 178.591 117.839 180.023 118.067 181.659H114.044C113.737 180.466 113.055 179.409 111.999 178.489C110.953 177.557 109.544 177.091 107.771 177.091C106.203 177.091 104.828 177.5 103.646 178.318C102.476 179.125 101.561 180.267 100.902 181.744C100.254 183.21 99.9304 184.932 99.9304 186.909C99.9304 188.932 100.249 190.693 100.885 192.193C101.533 193.693 102.442 194.858 103.612 195.688C104.794 196.517 106.18 196.932 107.771 196.932C108.817 196.932 109.766 196.75 110.618 196.386C111.47 196.023 112.192 195.5 112.783 194.818C113.374 194.136 113.794 193.318 114.044 192.364H118.067C117.839 193.909 117.277 195.301 116.379 196.54C115.493 197.767 114.317 198.744 112.851 199.472C111.396 200.188 109.703 200.545 107.771 200.545ZM121.885 177.568V173.818H143.158V177.568H134.567V200H130.544V177.568H121.885ZM158.643 200.545C156.121 200.545 153.945 199.989 152.115 198.875C150.297 197.75 148.893 196.182 147.905 194.17C146.928 192.148 146.439 189.795 146.439 187.114C146.439 184.432 146.928 182.068 147.905 180.023C148.893 177.966 150.268 176.364 152.03 175.216C153.803 174.057 155.871 173.477 158.234 173.477C159.598 173.477 160.945 173.705 162.274 174.159C163.604 174.614 164.814 175.352 165.905 176.375C166.996 177.386 167.865 178.727 168.513 180.398C169.161 182.068 169.484 184.125 169.484 186.568V188.273H149.303V184.795H165.393C165.393 183.318 165.098 182 164.507 180.841C163.928 179.682 163.098 178.767 162.018 178.097C160.95 177.426 159.689 177.091 158.234 177.091C156.632 177.091 155.246 177.489 154.075 178.284C152.916 179.068 152.024 180.091 151.399 181.352C150.774 182.614 150.462 183.966 150.462 185.409V187.727C150.462 189.705 150.803 191.381 151.484 192.756C152.178 194.119 153.138 195.159 154.365 195.875C155.592 196.58 157.018 196.932 158.643 196.932C159.7 196.932 160.655 196.784 161.507 196.489C162.371 196.182 163.115 195.727 163.74 195.125C164.365 194.511 164.848 193.75 165.189 192.841L169.075 193.932C168.666 195.25 167.979 196.409 167.013 197.409C166.047 198.398 164.854 199.17 163.433 199.727C162.013 200.273 160.416 200.545 158.643 200.545ZM189.922 194.545L199.058 173.818H202.876L191.558 200H188.286L177.172 173.818H180.922L189.922 194.545ZM179.626 173.818V200H175.604V173.818H179.626ZM200.217 200V173.818H204.24V200H200.217ZM219.308 200.614C217.649 200.614 216.143 200.301 214.791 199.676C213.439 199.04 212.365 198.125 211.57 196.932C210.774 195.727 210.376 194.273 210.376 192.568C210.376 191.068 210.672 189.852 211.263 188.92C211.854 187.977 212.643 187.239 213.632 186.705C214.621 186.17 215.712 185.773 216.905 185.511C218.109 185.239 219.32 185.023 220.536 184.864C222.126 184.659 223.416 184.506 224.405 184.403C225.405 184.29 226.132 184.102 226.587 183.841C227.053 183.58 227.286 183.125 227.286 182.477V182.341C227.286 180.659 226.825 179.352 225.905 178.42C224.996 177.489 223.615 177.023 221.763 177.023C219.842 177.023 218.337 177.443 217.246 178.284C216.155 179.125 215.388 180.023 214.945 180.977L211.126 179.614C211.808 178.023 212.717 176.784 213.854 175.898C215.001 175 216.251 174.375 217.604 174.023C218.967 173.659 220.308 173.477 221.626 173.477C222.467 173.477 223.433 173.58 224.524 173.784C225.626 173.977 226.689 174.381 227.712 174.994C228.746 175.608 229.604 176.534 230.286 177.773C230.967 179.011 231.308 180.67 231.308 182.75V200H227.286V196.455H227.081C226.808 197.023 226.354 197.631 225.717 198.278C225.081 198.926 224.234 199.477 223.178 199.932C222.121 200.386 220.831 200.614 219.308 200.614ZM219.922 197C221.513 197 222.854 196.688 223.945 196.062C225.047 195.438 225.876 194.631 226.433 193.642C227.001 192.653 227.286 191.614 227.286 190.523V186.841C227.115 187.045 226.74 187.233 226.161 187.403C225.592 187.562 224.933 187.705 224.183 187.83C223.445 187.943 222.723 188.045 222.018 188.136C221.325 188.216 220.763 188.284 220.331 188.341C219.286 188.477 218.308 188.699 217.399 189.006C216.501 189.301 215.774 189.75 215.217 190.352C214.672 190.943 214.399 191.75 214.399 192.773C214.399 194.17 214.916 195.227 215.95 195.943C216.996 196.648 218.32 197 219.922 197ZM252.969 194.545L262.105 173.818H265.923L254.605 200H251.332L240.219 173.818H243.969L252.969 194.545ZM242.673 173.818V200H238.651V173.818H242.673ZM263.264 200V173.818H267.287V200H263.264ZM278.673 194.068L291.287 173.818H295.923V200H291.901V179.75L279.355 200H274.651V173.818H278.673V194.068Z" fill="white"/>
<path d="M40.8182 361V337.727H48.6818C50.5076 337.727 52 338.057 53.1591 338.716C54.3258 339.367 55.1894 340.25 55.75 341.364C56.3106 342.477 56.5909 343.72 56.5909 345.091C56.5909 346.462 56.3106 347.708 55.75 348.83C55.197 349.951 54.3409 350.845 53.1818 351.511C52.0227 352.17 50.5379 352.5 48.7273 352.5H43.0909V350H48.6364C49.8864 350 50.8902 349.784 51.6477 349.352C52.4053 348.92 52.9545 348.337 53.2955 347.602C53.6439 346.86 53.8182 346.023 53.8182 345.091C53.8182 344.159 53.6439 343.326 53.2955 342.591C52.9545 341.856 52.4015 341.28 51.6364 340.864C50.8712 340.439 49.8561 340.227 48.5909 340.227H43.6364V361H40.8182ZM67.8977 361.364C66.2159 361.364 64.7652 360.992 63.5455 360.25C62.3333 359.5 61.3977 358.455 60.7386 357.114C60.0871 355.765 59.7614 354.197 59.7614 352.409C59.7614 350.621 60.0871 349.045 60.7386 347.682C61.3977 346.311 62.3144 345.242 63.4886 344.477C64.6705 343.705 66.0492 343.318 67.625 343.318C68.5341 343.318 69.4318 343.47 70.3182 343.773C71.2045 344.076 72.0114 344.568 72.7386 345.25C73.4659 345.924 74.0455 346.818 74.4773 347.932C74.9091 349.045 75.125 350.417 75.125 352.045V353.182H61.6705V350.864H72.3977C72.3977 349.879 72.2008 349 71.8068 348.227C71.4205 347.455 70.8674 346.845 70.1477 346.398C69.4356 345.951 68.5947 345.727 67.625 345.727C66.5568 345.727 65.6326 345.992 64.8523 346.523C64.0795 347.045 63.4848 347.727 63.0682 348.568C62.6515 349.409 62.4432 350.311 62.4432 351.273V352.818C62.4432 354.136 62.6705 355.254 63.125 356.17C63.5871 357.08 64.2273 357.773 65.0455 358.25C65.8636 358.72 66.8144 358.955 67.8977 358.955C68.6023 358.955 69.2386 358.856 69.8068 358.659C70.3826 358.455 70.8788 358.152 71.2955 357.75C71.7121 357.341 72.0341 356.833 72.2614 356.227L74.8523 356.955C74.5795 357.833 74.1212 358.606 73.4773 359.273C72.8333 359.932 72.0379 360.447 71.0909 360.818C70.1439 361.182 69.0795 361.364 67.8977 361.364ZM79.2045 343.545H81.8864V358.5H88.4773V343.545H91.1591V358.5H97.75V343.545H100.432V361H79.2045V343.545ZM112.648 361.364C110.966 361.364 109.515 360.992 108.295 360.25C107.083 359.5 106.148 358.455 105.489 357.114C104.837 355.765 104.511 354.197 104.511 352.409C104.511 350.621 104.837 349.045 105.489 347.682C106.148 346.311 107.064 345.242 108.239 344.477C109.42 343.705 110.799 343.318 112.375 343.318C113.284 343.318 114.182 343.47 115.068 343.773C115.955 344.076 116.761 344.568 117.489 345.25C118.216 345.924 118.795 346.818 119.227 347.932C119.659 349.045 119.875 350.417 119.875 352.045V353.182H106.42V350.864H117.148C117.148 349.879 116.951 349 116.557 348.227C116.17 347.455 115.617 346.845 114.898 346.398C114.186 345.951 113.345 345.727 112.375 345.727C111.307 345.727 110.383 345.992 109.602 346.523C108.83 347.045 108.235 347.727 107.818 348.568C107.402 349.409 107.193 350.311 107.193 351.273V352.818C107.193 354.136 107.42 355.254 107.875 356.17C108.337 357.08 108.977 357.773 109.795 358.25C110.614 358.72 111.564 358.955 112.648 358.955C113.352 358.955 113.989 358.856 114.557 358.659C115.133 358.455 115.629 358.152 116.045 357.75C116.462 357.341 116.784 356.833 117.011 356.227L119.602 356.955C119.33 357.833 118.871 358.606 118.227 359.273C117.583 359.932 116.788 360.447 115.841 360.818C114.894 361.182 113.83 361.364 112.648 361.364ZM135.636 351.045V353.545H126V351.045H135.636ZM126.636 343.545V361H123.955V343.545H126.636ZM137.682 343.545V361H135V343.545H137.682ZM145.261 357.045L153.67 343.545H156.761V361H154.08V347.5L145.716 361H142.58V343.545H145.261V357.045ZM172.173 361V346H167.537C166.491 346 165.67 346.242 165.071 346.727C164.473 347.212 164.173 347.879 164.173 348.727C164.173 349.561 164.442 350.216 164.98 350.693C165.526 351.17 166.272 351.409 167.219 351.409H172.855V353.909H167.219C166.037 353.909 165.018 353.701 164.162 353.284C163.306 352.867 162.647 352.273 162.185 351.5C161.723 350.72 161.491 349.795 161.491 348.727C161.491 347.652 161.734 346.727 162.219 345.955C162.704 345.182 163.397 344.587 164.298 344.17C165.207 343.754 166.287 343.545 167.537 343.545H174.719V361H172.173ZM160.537 361L165.491 352.318H168.401L163.446 361H160.537Z" fill="white"/>
<g clip-path="url(#clip0_3_156)">
<path d="M196.459 361C196.373 361.001 196.288 360.98 196.208 360.941C196.129 360.901 196.056 360.842 195.995 360.768C195.934 360.694 195.885 360.605 195.852 360.508C195.819 360.41 195.802 360.306 195.802 360.2C195.802 360.095 195.819 359.99 195.852 359.893C195.885 359.795 195.934 359.707 195.995 359.632L201.421 353.002L195.995 346.371C195.872 346.22 195.803 346.016 195.803 345.803C195.803 345.59 195.872 345.386 195.995 345.235C196.118 345.085 196.285 345 196.459 345C196.633 345 196.8 345.085 196.923 345.235L202.807 352.434C202.868 352.508 202.917 352.597 202.95 352.694C202.983 352.791 203 352.896 203 353.002C203 353.107 202.983 353.212 202.95 353.309C202.917 353.407 202.868 353.495 202.807 353.569L196.923 360.768C196.862 360.842 196.79 360.901 196.71 360.941C196.631 360.98 196.545 361.001 196.459 361Z" fill="white"/>
<path d="M202.343 353.801H186.654C186.48 353.801 186.314 353.717 186.191 353.567C186.069 353.417 186 353.214 186 353.002C186 352.789 186.069 352.586 186.191 352.436C186.314 352.286 186.48 352.202 186.654 352.202H202.343C202.516 352.202 202.682 352.286 202.805 352.436C202.927 352.586 202.996 352.789 202.996 353.002C202.996 353.214 202.927 353.417 202.805 353.567C202.682 353.717 202.516 353.801 202.343 353.801Z" fill="white"/>
</g>
<defs>
<clipPath id="clip0_3_156">
<rect width="32" height="32" fill="white" transform="translate(186 337)"/>
</clipPath>
</defs>
</svg>
