<svg width="110" height="110" viewBox="0 0 110 110" fill="none" xmlns="http://www.w3.org/2000/svg">
<g clip-path="url(#clip0_24_46)">
<path d="M91.6667 54.2208C90.4511 54.2208 89.2853 54.7037 88.4258 55.5633C87.5662 56.4228 87.0833 57.5886 87.0833 58.8042V84.3333C87.0833 85.0627 86.7936 85.7622 86.2779 86.2779C85.7622 86.7936 85.0627 87.0833 84.3333 87.0833H25.6667C24.9373 87.0833 24.2378 86.7936 23.7221 86.2779C23.2064 85.7622 22.9167 85.0627 22.9167 84.3333V25.6667C22.9167 24.9373 23.2064 24.2378 23.7221 23.7221C24.2378 23.2064 24.9373 22.9167 25.6667 22.9167H69.5292C70.7447 22.9167 71.9105 22.4338 72.7701 21.5742C73.6296 20.7147 74.1125 19.5489 74.1125 18.3333C74.1125 17.1178 73.6296 15.952 72.7701 15.0924C71.9105 14.2329 70.7447 13.75 69.5292 13.75H25.6667C22.5099 13.7621 19.4858 15.0215 17.2536 17.2536C15.0215 19.4858 13.7621 22.5099 13.75 25.6667V84.3333C13.7621 87.4901 15.0215 90.5142 17.2536 92.7464C19.4858 94.9785 22.5099 96.2379 25.6667 96.25H84.3333C87.4901 96.2379 90.5142 94.9785 92.7464 92.7464C94.9785 90.5142 96.2379 87.4901 96.25 84.3333V58.8042C96.25 57.5886 95.7671 56.4228 94.9076 55.5633C94.048 54.7037 92.8822 54.2208 91.6667 54.2208Z" fill="#0041BF"/>
<path d="M49.1333 50.4167C48.2732 49.6432 47.1525 49.2235 45.9959 49.2418C44.8393 49.2601 43.7324 49.7151 42.8973 50.5155C42.0621 51.3158 41.5605 52.4023 41.493 53.5571C41.4255 54.7119 41.7971 55.8495 42.5333 56.7417L52.7083 67.4208C53.1343 67.8677 53.6462 68.2239 54.2133 68.4681C54.7804 68.7122 55.3909 68.8393 56.0083 68.8417C56.6224 68.8452 57.231 68.7254 57.7979 68.4892C58.3648 68.253 58.8784 67.9052 59.3083 67.4667L90.3833 35.3833C90.8046 34.95 91.1365 34.4379 91.3599 33.8762C91.5833 33.3146 91.6939 32.7145 91.6854 32.1102C91.6769 31.5058 91.5494 30.9091 91.3103 30.354C91.0711 29.7989 90.725 29.2963 90.2917 28.875C89.8583 28.4537 89.3462 28.1218 88.7846 27.8984C88.223 27.675 87.6229 27.5644 87.0185 27.5729C86.4141 27.5814 85.8174 27.7089 85.2623 27.948C84.7072 28.1872 84.2046 28.5333 83.7833 28.9667L56.0542 57.6583L49.1333 50.4167Z" fill="#0041BF"/>
</g>
<defs>
<clipPath id="clip0_24_46">
<rect width="110" height="110" fill="white"/>
</clipPath>
</defs>
</svg>
