<svg width="450" height="400" viewBox="0 0 450 400" fill="none" xmlns="http://www.w3.org/2000/svg">
<rect width="450" height="400" rx="15" fill="#0041BF"/>
<path d="M37.8182 361V337.727H45.9545C47.5758 337.727 48.9129 338.008 49.9659 338.568C51.0189 339.121 51.803 339.867 52.3182 340.807C52.8333 341.739 53.0909 342.773 53.0909 343.909C53.0909 344.909 52.9129 345.735 52.5568 346.386C52.2083 347.038 51.7462 347.553 51.1705 347.932C50.6023 348.311 49.9848 348.591 49.3182 348.773V349C50.0303 349.045 50.7462 349.295 51.4659 349.75C52.1856 350.205 52.7879 350.856 53.2727 351.705C53.7576 352.553 54 353.591 54 354.818C54 355.985 53.7348 357.034 53.2045 357.966C52.6742 358.898 51.8371 359.636 50.6932 360.182C49.5492 360.727 48.0606 361 46.2273 361H37.8182ZM40.6364 358.5H46.2273C48.0682 358.5 49.375 358.144 50.1477 357.432C50.928 356.712 51.3182 355.841 51.3182 354.818C51.3182 354.03 51.1174 353.303 50.7159 352.636C50.3144 351.962 49.7424 351.424 49 351.023C48.2576 350.614 47.3788 350.409 46.3636 350.409H40.6364V358.5ZM40.6364 347.955H45.8636C46.7121 347.955 47.4773 347.788 48.1591 347.455C48.8485 347.121 49.3939 346.652 49.7955 346.045C50.2045 345.439 50.4091 344.727 50.4091 343.909C50.4091 342.886 50.053 342.019 49.3409 341.307C48.6288 340.587 47.5 340.227 45.9545 340.227H40.6364V347.955ZM65.358 361.364C63.7822 361.364 62.3996 360.989 61.2102 360.239C60.0284 359.489 59.1042 358.439 58.4375 357.091C57.7784 355.742 57.4489 354.167 57.4489 352.364C57.4489 350.545 57.7784 348.958 58.4375 347.602C59.1042 346.246 60.0284 345.193 61.2102 344.443C62.3996 343.693 63.7822 343.318 65.358 343.318C66.9337 343.318 68.3125 343.693 69.4943 344.443C70.6837 345.193 71.608 346.246 72.267 347.602C72.9337 348.958 73.267 350.545 73.267 352.364C73.267 354.167 72.9337 355.742 72.267 357.091C71.608 358.439 70.6837 359.489 69.4943 360.239C68.3125 360.989 66.9337 361.364 65.358 361.364ZM65.358 358.955C66.5549 358.955 67.5398 358.648 68.3125 358.034C69.0852 357.42 69.6572 356.614 70.0284 355.614C70.3996 354.614 70.5852 353.53 70.5852 352.364C70.5852 351.197 70.3996 350.11 70.0284 349.102C69.6572 348.095 69.0852 347.28 68.3125 346.659C67.5398 346.038 66.5549 345.727 65.358 345.727C64.161 345.727 63.1761 346.038 62.4034 346.659C61.6307 347.28 61.0587 348.095 60.6875 349.102C60.3163 350.11 60.1307 351.197 60.1307 352.364C60.1307 353.53 60.3163 354.614 60.6875 355.614C61.0587 356.614 61.6307 357.42 62.4034 358.034C63.1761 358.648 64.161 358.955 65.358 358.955ZM76.2699 356.545H79.1335C79.1941 357.333 79.5502 357.932 80.2017 358.341C80.8608 358.75 81.7169 358.955 82.7699 358.955C83.8456 358.955 84.7661 358.735 85.5312 358.295C86.2964 357.848 86.679 357.129 86.679 356.136C86.679 355.553 86.535 355.045 86.2472 354.614C85.9593 354.174 85.554 353.833 85.0312 353.591C84.5085 353.348 83.8911 353.227 83.179 353.227H80.179V350.818H83.179C84.2472 350.818 85.035 350.576 85.5426 350.091C86.0578 349.606 86.3153 349 86.3153 348.273C86.3153 347.492 86.0388 346.867 85.4858 346.398C84.9328 345.92 84.1487 345.682 83.1335 345.682C82.1108 345.682 81.2585 345.913 80.5767 346.375C79.8949 346.83 79.535 347.417 79.4972 348.136H76.679C76.7093 347.197 76.9972 346.367 77.5426 345.648C78.0881 344.92 78.8305 344.352 79.7699 343.943C80.7093 343.527 81.785 343.318 82.9972 343.318C84.2244 343.318 85.2888 343.534 86.1903 343.966C87.0994 344.39 87.8002 344.97 88.2926 345.705C88.7926 346.432 89.0426 347.258 89.0426 348.182C89.0426 349.167 88.7661 349.962 88.2131 350.568C87.66 351.174 86.9669 351.606 86.1335 351.864V352.045C86.7926 352.091 87.3646 352.303 87.8494 352.682C88.3419 353.053 88.7244 353.542 88.9972 354.148C89.2699 354.746 89.4062 355.409 89.4062 356.136C89.4062 357.197 89.1222 358.121 88.554 358.909C87.9858 359.689 87.2055 360.295 86.2131 360.727C85.2206 361.152 84.0881 361.364 82.8153 361.364C81.5805 361.364 80.4744 361.163 79.4972 360.761C78.5199 360.352 77.7434 359.788 77.1676 359.068C76.5994 358.341 76.3002 357.5 76.2699 356.545ZM102.719 357.364L108.81 343.545H111.355L103.81 361H101.628L94.2188 343.545H96.7188L102.719 357.364ZM95.8551 343.545V361H93.1733V343.545H95.8551ZM109.582 361V343.545H112.264V361H109.582ZM124.264 361.364C122.688 361.364 121.306 360.989 120.116 360.239C118.935 359.489 118.01 358.439 117.344 357.091C116.685 355.742 116.355 354.167 116.355 352.364C116.355 350.545 116.685 348.958 117.344 347.602C118.01 346.246 118.935 345.193 120.116 344.443C121.306 343.693 122.688 343.318 124.264 343.318C125.84 343.318 127.219 343.693 128.401 344.443C129.59 345.193 130.514 346.246 131.173 347.602C131.84 348.958 132.173 350.545 132.173 352.364C132.173 354.167 131.84 355.742 131.173 357.091C130.514 358.439 129.59 359.489 128.401 360.239C127.219 360.989 125.84 361.364 124.264 361.364ZM124.264 358.955C125.461 358.955 126.446 358.648 127.219 358.034C127.991 357.42 128.563 356.614 128.935 355.614C129.306 354.614 129.491 353.53 129.491 352.364C129.491 351.197 129.306 350.11 128.935 349.102C128.563 348.095 127.991 347.28 127.219 346.659C126.446 346.038 125.461 345.727 124.264 345.727C123.067 345.727 122.082 346.038 121.31 346.659C120.537 347.28 119.965 348.095 119.594 349.102C119.223 350.11 119.037 351.197 119.037 352.364C119.037 353.53 119.223 354.614 119.594 355.614C119.965 356.614 120.537 357.42 121.31 358.034C122.082 358.648 123.067 358.955 124.264 358.955ZM134.457 361L141.548 352.136L134.548 343.545H137.73L143.548 351H145.003V343.545H147.685V351H149.094L154.912 343.545H158.094L151.139 352.136L158.185 361H154.957L149.048 353.5H147.685V361H145.003V353.5H143.639L137.685 361H134.457ZM173.699 351.045V353.545H164.062V351.045H173.699ZM164.699 343.545V361H162.017V343.545H164.699ZM175.744 343.545V361H173.062V343.545H175.744ZM187.733 361.364C186.157 361.364 184.775 360.989 183.585 360.239C182.403 359.489 181.479 358.439 180.812 357.091C180.153 355.742 179.824 354.167 179.824 352.364C179.824 350.545 180.153 348.958 180.812 347.602C181.479 346.246 182.403 345.193 183.585 344.443C184.775 343.693 186.157 343.318 187.733 343.318C189.309 343.318 190.688 343.693 191.869 344.443C193.059 345.193 193.983 346.246 194.642 347.602C195.309 348.958 195.642 350.545 195.642 352.364C195.642 354.167 195.309 355.742 194.642 357.091C193.983 358.439 193.059 359.489 191.869 360.239C190.688 360.989 189.309 361.364 187.733 361.364ZM187.733 358.955C188.93 358.955 189.915 358.648 190.688 358.034C191.46 357.42 192.032 356.614 192.403 355.614C192.775 354.614 192.96 353.53 192.96 352.364C192.96 351.197 192.775 350.11 192.403 349.102C192.032 348.095 191.46 347.28 190.688 346.659C189.915 346.038 188.93 345.727 187.733 345.727C186.536 345.727 185.551 346.038 184.778 346.659C184.006 347.28 183.434 348.095 183.062 349.102C182.691 350.11 182.506 351.197 182.506 352.364C182.506 353.53 182.691 354.614 183.062 355.614C183.434 356.614 184.006 357.42 184.778 358.034C185.551 358.648 186.536 358.955 187.733 358.955ZM206.827 361.364C205.19 361.364 203.781 360.977 202.599 360.205C201.418 359.432 200.509 358.367 199.872 357.011C199.236 355.655 198.918 354.106 198.918 352.364C198.918 350.591 199.243 349.027 199.895 347.67C200.554 346.307 201.471 345.242 202.645 344.477C203.827 343.705 205.205 343.318 206.781 343.318C208.009 343.318 209.115 343.545 210.099 344C211.084 344.455 211.891 345.091 212.52 345.909C213.149 346.727 213.539 347.682 213.69 348.773H211.009C210.804 347.977 210.349 347.273 209.645 346.659C208.948 346.038 208.009 345.727 206.827 345.727C205.781 345.727 204.865 346 204.077 346.545C203.296 347.083 202.687 347.845 202.247 348.83C201.815 349.807 201.599 350.955 201.599 352.273C201.599 353.621 201.812 354.795 202.236 355.795C202.668 356.795 203.274 357.572 204.054 358.125C204.842 358.678 205.766 358.955 206.827 358.955C207.524 358.955 208.156 358.833 208.724 358.591C209.293 358.348 209.774 358 210.168 357.545C210.562 357.091 210.842 356.545 211.009 355.909H213.69C213.539 356.939 213.164 357.867 212.565 358.693C211.974 359.511 211.19 360.163 210.213 360.648C209.243 361.125 208.115 361.364 206.827 361.364ZM216.236 346.045V343.545H230.418V346.045H224.69V361H222.009V346.045H216.236ZM237.011 357.045L245.42 343.545H248.511V361H245.83V347.5L237.466 361H234.33V343.545H237.011V357.045Z" fill="white"/>
<path d="M41.0682 84.4773V80.5227H43.25C44.0909 80.5227 44.7955 80.358 45.3636 80.0284C45.9432 79.6989 46.4205 79.2727 46.7955 78.75C47.1818 78.2273 47.5 77.6818 47.75 77.1136L48.2955 75.8182L36.2273 49.0909H40.7955L50.4091 70.7727L59.2045 49.0909H63.7045L51.6364 78.3409C51.1591 79.4318 50.6136 80.4432 50 81.375C49.3977 82.3068 48.5739 83.0568 47.5284 83.625C46.4943 84.1932 45.0909 84.4773 43.3182 84.4773H41.0682ZM65.8395 91.5V80.25H68.0213C68.5554 79.6932 69.0156 79.0909 69.402 78.4432C69.7884 77.7955 70.1236 77.0284 70.4077 76.142C70.7031 75.2443 70.9531 74.1534 71.1577 72.8693C71.3622 71.5739 71.544 70.0114 71.7031 68.1818L72.5895 57.8182H89.2259V80.25H93.2486V91.5H89.2259V84H69.8622V91.5H65.8395ZM72.5895 80.25H85.2031V61.5682H76.3395L75.6577 68.1818C75.3736 70.9205 75.0213 73.3125 74.6009 75.358C74.1804 77.4034 73.5099 79.0341 72.5895 80.25ZM109.224 84.5455C106.861 84.5455 104.787 83.983 103.003 82.858C101.23 81.733 99.8438 80.1591 98.8438 78.1364C97.8551 76.1136 97.3608 73.75 97.3608 71.0455C97.3608 68.3182 97.8551 65.9375 98.8438 63.9034C99.8438 61.8693 101.23 60.2898 103.003 59.1648C104.787 58.0398 106.861 57.4773 109.224 57.4773C111.588 57.4773 113.656 58.0398 115.429 59.1648C117.213 60.2898 118.599 61.8693 119.588 63.9034C120.588 65.9375 121.088 68.3182 121.088 71.0455C121.088 73.75 120.588 76.1136 119.588 78.1364C118.599 80.1591 117.213 81.733 115.429 82.858C113.656 83.983 111.588 84.5455 109.224 84.5455ZM109.224 80.9318C111.02 80.9318 112.497 80.4716 113.656 79.5511C114.815 78.6307 115.673 77.4205 116.23 75.9205C116.787 74.4205 117.065 72.7955 117.065 71.0455C117.065 69.2955 116.787 67.6648 116.23 66.1534C115.673 64.642 114.815 63.4205 113.656 62.4886C112.497 61.5568 111.02 61.0909 109.224 61.0909C107.429 61.0909 105.952 61.5568 104.793 62.4886C103.634 63.4205 102.776 64.642 102.219 66.1534C101.662 67.6648 101.384 69.2955 101.384 71.0455C101.384 72.7955 101.662 74.4205 102.219 75.9205C102.776 77.4205 103.634 78.6307 104.793 79.5511C105.952 80.4716 107.429 80.9318 109.224 80.9318ZM146.661 48L148.706 50.4545C147.911 51.2273 146.99 51.767 145.945 52.0739C144.899 52.3807 143.717 52.5682 142.399 52.6364C141.081 52.7045 139.615 52.7727 138.001 52.8409C136.183 52.9091 134.678 53.3523 133.484 54.1705C132.291 54.9886 131.371 56.1705 130.723 57.7159C130.075 59.2614 129.661 61.1591 129.479 63.4091H129.82C130.706 61.7727 131.933 60.5682 133.501 59.7955C135.07 59.0227 136.751 58.6364 138.547 58.6364C140.592 58.6364 142.433 59.1136 144.07 60.0682C145.706 61.0227 147.001 62.4375 147.956 64.3125C148.911 66.1875 149.388 68.5 149.388 71.25C149.388 73.9886 148.899 76.3523 147.922 78.3409C146.956 80.3295 145.598 81.8636 143.848 82.9432C142.109 84.0114 140.07 84.5455 137.729 84.5455C135.388 84.5455 133.337 83.9943 131.575 82.892C129.814 81.7784 128.445 80.1307 127.467 77.9489C126.49 75.7557 126.001 73.0455 126.001 69.8182V67.0227C126.001 61.1932 126.99 56.7727 128.967 53.7614C130.956 50.75 133.945 49.1932 137.933 49.0909C139.342 49.0455 140.598 49.0341 141.7 49.0568C142.803 49.0795 143.763 49.0284 144.581 48.9034C145.399 48.7784 146.092 48.4773 146.661 48ZM137.729 80.9318C139.308 80.9318 140.666 80.5341 141.803 79.7386C142.95 78.9432 143.831 77.8239 144.445 76.3807C145.058 74.9261 145.365 73.2159 145.365 71.25C145.365 69.3409 145.053 67.7159 144.428 66.375C143.814 65.0341 142.933 64.0114 141.786 63.3068C140.638 62.6023 139.263 62.25 137.661 62.25C136.49 62.25 135.439 62.4489 134.507 62.8466C133.575 63.2443 132.78 63.8295 132.121 64.6023C131.462 65.375 130.95 66.3182 130.587 67.4318C130.234 68.5455 130.047 69.8182 130.024 71.25C130.024 74.1818 130.712 76.5284 132.087 78.2898C133.462 80.0511 135.342 80.9318 137.729 80.9318ZM173.064 69.0682V72.8182H158.609V69.0682H173.064ZM159.564 57.8182V84H155.541V57.8182H159.564ZM176.132 57.8182V84H172.109V57.8182H176.132ZM191.183 84.6136C189.524 84.6136 188.018 84.3011 186.666 83.6761C185.314 83.0398 184.24 82.125 183.445 80.9318C182.649 79.7273 182.251 78.2727 182.251 76.5682C182.251 75.0682 182.547 73.8523 183.138 72.9205C183.729 71.9773 184.518 71.2386 185.507 70.7045C186.496 70.1705 187.587 69.7727 188.78 69.5114C189.984 69.2386 191.195 69.0227 192.411 68.8636C194.001 68.6591 195.291 68.5057 196.28 68.4034C197.28 68.2898 198.007 68.1023 198.462 67.8409C198.928 67.5795 199.161 67.125 199.161 66.4773V66.3409C199.161 64.6591 198.7 63.3523 197.78 62.4205C196.871 61.4886 195.49 61.0227 193.638 61.0227C191.717 61.0227 190.212 61.4432 189.121 62.2841C188.03 63.125 187.263 64.0227 186.82 64.9773L183.001 63.6136C183.683 62.0227 184.592 60.7841 185.729 59.8977C186.876 59 188.126 58.375 189.479 58.0227C190.842 57.6591 192.183 57.4773 193.501 57.4773C194.342 57.4773 195.308 57.5795 196.399 57.7841C197.501 57.9773 198.564 58.3807 199.587 58.9943C200.621 59.608 201.479 60.5341 202.161 61.7727C202.842 63.0114 203.183 64.6705 203.183 66.75V84H199.161V80.4545H198.956C198.683 81.0227 198.229 81.6307 197.592 82.2784C196.956 82.9261 196.109 83.4773 195.053 83.9318C193.996 84.3864 192.706 84.6136 191.183 84.6136ZM191.797 81C193.388 81 194.729 80.6875 195.82 80.0625C196.922 79.4375 197.751 78.6307 198.308 77.642C198.876 76.6534 199.161 75.6136 199.161 74.5227V70.8409C198.99 71.0455 198.615 71.233 198.036 71.4034C197.467 71.5625 196.808 71.7045 196.058 71.8295C195.32 71.9432 194.598 72.0455 193.893 72.1364C193.2 72.2159 192.638 72.2841 192.206 72.3409C191.161 72.4773 190.183 72.6989 189.274 73.0057C188.376 73.3011 187.649 73.75 187.092 74.3523C186.547 74.9432 186.274 75.75 186.274 76.7727C186.274 78.1705 186.791 79.2273 187.825 79.9432C188.871 80.6477 190.195 81 191.797 81ZM226.276 84V61.5H219.321C217.753 61.5 216.52 61.8636 215.622 62.5909C214.724 63.3182 214.276 64.3182 214.276 65.5909C214.276 66.8409 214.679 67.8239 215.486 68.5398C216.304 69.2557 217.423 69.6136 218.844 69.6136H227.298V73.3636H218.844C217.071 73.3636 215.543 73.0511 214.259 72.4261C212.974 71.8011 211.986 70.9091 211.293 69.75C210.599 68.5795 210.253 67.1932 210.253 65.5909C210.253 63.9773 210.616 62.5909 211.344 61.4318C212.071 60.2727 213.111 59.3807 214.463 58.7557C215.827 58.1307 217.446 57.8182 219.321 57.8182H230.094V84H226.276ZM208.821 84L216.253 70.9773H220.616L213.185 84H208.821ZM255.001 78.0682L267.615 57.8182H272.251V84H268.229V63.75L255.683 84H250.979V57.8182H255.001V78.0682ZM38.6818 142V115.818H59.2727V142H55.25V119.568H42.7045V142H38.6818ZM77.2557 142.545C74.892 142.545 72.8182 141.983 71.0341 140.858C69.2614 139.733 67.875 138.159 66.875 136.136C65.8864 134.114 65.392 131.75 65.392 129.045C65.392 126.318 65.8864 123.937 66.875 121.903C67.875 119.869 69.2614 118.29 71.0341 117.165C72.8182 116.04 74.892 115.477 77.2557 115.477C79.6193 115.477 81.6875 116.04 83.4602 117.165C85.2443 118.29 86.6307 119.869 87.6193 121.903C88.6193 123.937 89.1193 126.318 89.1193 129.045C89.1193 131.75 88.6193 134.114 87.6193 136.136C86.6307 138.159 85.2443 139.733 83.4602 140.858C81.6875 141.983 79.6193 142.545 77.2557 142.545ZM77.2557 138.932C79.0511 138.932 80.5284 138.472 81.6875 137.551C82.8466 136.631 83.7045 135.42 84.2614 133.92C84.8182 132.42 85.0966 130.795 85.0966 129.045C85.0966 127.295 84.8182 125.665 84.2614 124.153C83.7045 122.642 82.8466 121.42 81.6875 120.489C80.5284 119.557 79.0511 119.091 77.2557 119.091C75.4602 119.091 73.983 119.557 72.8239 120.489C71.6648 121.42 70.8068 122.642 70.25 124.153C69.6932 125.665 69.4148 127.295 69.4148 129.045C69.4148 130.795 69.6932 132.42 70.25 133.92C70.8068 135.42 71.6648 136.631 72.8239 137.551C73.983 138.472 75.4602 138.932 77.2557 138.932ZM112.783 127.068V130.818H98.3281V127.068H112.783ZM99.2827 115.818V142H95.2599V115.818H99.2827ZM115.851 115.818V142H111.828V115.818H115.851ZM138.947 142V119.5H131.993C130.425 119.5 129.192 119.864 128.294 120.591C127.396 121.318 126.947 122.318 126.947 123.591C126.947 124.841 127.351 125.824 128.158 126.54C128.976 127.256 130.095 127.614 131.516 127.614H139.97V131.364H131.516C129.743 131.364 128.214 131.051 126.93 130.426C125.646 129.801 124.658 128.909 123.964 127.75C123.271 126.58 122.925 125.193 122.925 123.591C122.925 121.977 123.288 120.591 124.016 119.432C124.743 118.273 125.783 117.381 127.135 116.756C128.499 116.131 130.118 115.818 131.993 115.818H142.766V142H138.947ZM121.493 142L128.925 128.977H133.288L125.857 142H121.493ZM146.588 119.568V115.818H167.861V119.568H159.27V142H155.247V119.568H146.588ZM191.251 127.068V130.818H176.797V127.068H191.251ZM177.751 115.818V142H173.729V115.818H177.751ZM194.32 115.818V142H190.297V115.818H194.32ZM209.371 142.614C207.712 142.614 206.206 142.301 204.854 141.676C203.501 141.04 202.428 140.125 201.632 138.932C200.837 137.727 200.439 136.273 200.439 134.568C200.439 133.068 200.734 131.852 201.325 130.92C201.916 129.977 202.706 129.239 203.695 128.705C204.683 128.17 205.774 127.773 206.967 127.511C208.172 127.239 209.382 127.023 210.598 126.864C212.189 126.659 213.479 126.506 214.467 126.403C215.467 126.29 216.195 126.102 216.649 125.841C217.115 125.58 217.348 125.125 217.348 124.477V124.341C217.348 122.659 216.888 121.352 215.967 120.42C215.058 119.489 213.678 119.023 211.825 119.023C209.905 119.023 208.399 119.443 207.308 120.284C206.217 121.125 205.45 122.023 205.007 122.977L201.189 121.614C201.871 120.023 202.78 118.784 203.916 117.898C205.064 117 206.314 116.375 207.666 116.023C209.03 115.659 210.371 115.477 211.689 115.477C212.53 115.477 213.496 115.58 214.587 115.784C215.689 115.977 216.751 116.381 217.774 116.994C218.808 117.608 219.666 118.534 220.348 119.773C221.03 121.011 221.371 122.67 221.371 124.75V142H217.348V138.455H217.143C216.871 139.023 216.416 139.631 215.78 140.278C215.143 140.926 214.297 141.477 213.24 141.932C212.183 142.386 210.893 142.614 209.371 142.614ZM209.984 139C211.575 139 212.916 138.688 214.007 138.062C215.109 137.438 215.939 136.631 216.496 135.642C217.064 134.653 217.348 133.614 217.348 132.523V128.841C217.178 129.045 216.803 129.233 216.223 129.403C215.655 129.562 214.996 129.705 214.246 129.83C213.507 129.943 212.786 130.045 212.081 130.136C211.388 130.216 210.825 130.284 210.393 130.341C209.348 130.477 208.371 130.699 207.462 131.006C206.564 131.301 205.837 131.75 205.28 132.352C204.734 132.943 204.462 133.75 204.462 134.773C204.462 136.17 204.979 137.227 206.013 137.943C207.058 138.648 208.382 139 209.984 139ZM244.463 142V119.5H237.509C235.94 119.5 234.707 119.864 233.81 120.591C232.912 121.318 232.463 122.318 232.463 123.591C232.463 124.841 232.866 125.824 233.673 126.54C234.491 127.256 235.611 127.614 237.031 127.614H245.486V131.364H237.031C235.259 131.364 233.73 131.051 232.446 130.426C231.162 129.801 230.173 128.909 229.48 127.75C228.787 126.58 228.44 125.193 228.44 123.591C228.44 121.977 228.804 120.591 229.531 119.432C230.259 118.273 231.298 117.381 232.651 116.756C234.014 116.131 235.634 115.818 237.509 115.818H248.281V142H244.463ZM227.009 142L234.44 128.977H238.804L231.372 142H227.009ZM269.166 142V115.818H279.871C282.689 115.818 284.928 116.455 286.587 117.727C288.246 119 289.075 120.682 289.075 122.773C289.075 124.364 288.604 125.597 287.661 126.472C286.717 127.335 285.507 127.92 284.03 128.227C284.996 128.364 285.933 128.705 286.842 129.25C287.763 129.795 288.524 130.545 289.126 131.5C289.729 132.443 290.03 133.602 290.03 134.977C290.03 136.318 289.689 137.517 289.007 138.574C288.325 139.631 287.348 140.466 286.075 141.08C284.803 141.693 283.28 142 281.507 142H269.166ZM272.984 138.318H281.507C282.893 138.318 283.979 137.989 284.763 137.33C285.547 136.67 285.939 135.773 285.939 134.636C285.939 133.284 285.547 132.222 284.763 131.449C283.979 130.665 282.893 130.273 281.507 130.273H272.984V138.318ZM272.984 126.795H279.871C280.95 126.795 281.876 126.648 282.649 126.352C283.422 126.045 284.013 125.614 284.422 125.057C284.842 124.489 285.053 123.818 285.053 123.045C285.053 121.943 284.592 121.08 283.672 120.455C282.751 119.818 281.484 119.5 279.871 119.5H272.984V126.795ZM307.097 142.545C304.574 142.545 302.398 141.989 300.568 140.875C298.75 139.75 297.347 138.182 296.358 136.17C295.381 134.148 294.892 131.795 294.892 129.114C294.892 126.432 295.381 124.068 296.358 122.023C297.347 119.966 298.722 118.364 300.483 117.216C302.256 116.057 304.324 115.477 306.688 115.477C308.051 115.477 309.398 115.705 310.727 116.159C312.057 116.614 313.267 117.352 314.358 118.375C315.449 119.386 316.318 120.727 316.966 122.398C317.614 124.068 317.938 126.125 317.938 128.568V130.273H297.756V126.795H313.847C313.847 125.318 313.551 124 312.96 122.841C312.381 121.682 311.551 120.767 310.472 120.097C309.403 119.426 308.142 119.091 306.688 119.091C305.085 119.091 303.699 119.489 302.528 120.284C301.369 121.068 300.477 122.091 299.852 123.352C299.227 124.614 298.915 125.966 298.915 127.409V129.727C298.915 131.705 299.256 133.381 299.938 134.756C300.631 136.119 301.591 137.159 302.818 137.875C304.045 138.58 305.472 138.932 307.097 138.932C308.153 138.932 309.108 138.784 309.96 138.489C310.824 138.182 311.568 137.727 312.193 137.125C312.818 136.511 313.301 135.75 313.642 134.841L317.528 135.932C317.119 137.25 316.432 138.409 315.466 139.409C314.5 140.398 313.307 141.17 311.886 141.727C310.466 142.273 308.869 142.545 307.097 142.545ZM343.489 106L345.534 108.455C344.739 109.227 343.818 109.767 342.773 110.074C341.727 110.381 340.545 110.568 339.227 110.636C337.909 110.705 336.443 110.773 334.83 110.841C333.011 110.909 331.506 111.352 330.312 112.17C329.119 112.989 328.199 114.17 327.551 115.716C326.903 117.261 326.489 119.159 326.307 121.409H326.648C327.534 119.773 328.761 118.568 330.33 117.795C331.898 117.023 333.58 116.636 335.375 116.636C337.42 116.636 339.261 117.114 340.898 118.068C342.534 119.023 343.83 120.438 344.784 122.312C345.739 124.188 346.216 126.5 346.216 129.25C346.216 131.989 345.727 134.352 344.75 136.341C343.784 138.33 342.426 139.864 340.676 140.943C338.938 142.011 336.898 142.545 334.557 142.545C332.216 142.545 330.165 141.994 328.403 140.892C326.642 139.778 325.273 138.131 324.295 135.949C323.318 133.756 322.83 131.045 322.83 127.818V125.023C322.83 119.193 323.818 114.773 325.795 111.761C327.784 108.75 330.773 107.193 334.761 107.091C336.17 107.045 337.426 107.034 338.528 107.057C339.631 107.08 340.591 107.028 341.409 106.903C342.227 106.778 342.92 106.477 343.489 106ZM334.557 138.932C336.136 138.932 337.494 138.534 338.631 137.739C339.778 136.943 340.659 135.824 341.273 134.381C341.886 132.926 342.193 131.216 342.193 129.25C342.193 127.341 341.881 125.716 341.256 124.375C340.642 123.034 339.761 122.011 338.614 121.307C337.466 120.602 336.091 120.25 334.489 120.25C333.318 120.25 332.267 120.449 331.335 120.847C330.403 121.244 329.608 121.83 328.949 122.602C328.29 123.375 327.778 124.318 327.415 125.432C327.062 126.545 326.875 127.818 326.852 129.25C326.852 132.182 327.54 134.528 328.915 136.29C330.29 138.051 332.17 138.932 334.557 138.932ZM367.369 125.159V128.909H352.097V125.159H367.369ZM38.6818 200V173.818H49.3864C52.2045 173.818 54.4432 174.455 56.1023 175.727C57.7614 177 58.5909 178.682 58.5909 180.773C58.5909 182.364 58.1193 183.597 57.1761 184.472C56.233 185.335 55.0227 185.92 53.5455 186.227C54.5114 186.364 55.4489 186.705 56.358 187.25C57.2784 187.795 58.0398 188.545 58.642 189.5C59.2443 190.443 59.5455 191.602 59.5455 192.977C59.5455 194.318 59.2045 195.517 58.5227 196.574C57.8409 197.631 56.8636 198.466 55.5909 199.08C54.3182 199.693 52.7955 200 51.0227 200H38.6818ZM42.5 196.318H51.0227C52.4091 196.318 53.4943 195.989 54.2784 195.33C55.0625 194.67 55.4545 193.773 55.4545 192.636C55.4545 191.284 55.0625 190.222 54.2784 189.449C53.4943 188.665 52.4091 188.273 51.0227 188.273H42.5V196.318ZM42.5 184.795H49.3864C50.4659 184.795 51.392 184.648 52.1648 184.352C52.9375 184.045 53.5284 183.614 53.9375 183.057C54.358 182.489 54.5682 181.818 54.5682 181.045C54.5682 179.943 54.108 179.08 53.1875 178.455C52.267 177.818 51 177.5 49.3864 177.5H42.5V184.795ZM76.6122 200.545C74.0895 200.545 71.9134 199.989 70.0838 198.875C68.2656 197.75 66.8622 196.182 65.8736 194.17C64.8963 192.148 64.4077 189.795 64.4077 187.114C64.4077 184.432 64.8963 182.068 65.8736 180.023C66.8622 177.966 68.2372 176.364 69.9986 175.216C71.7713 174.057 73.8395 173.477 76.2031 173.477C77.5668 173.477 78.9134 173.705 80.2429 174.159C81.5724 174.614 82.7827 175.352 83.8736 176.375C84.9645 177.386 85.8338 178.727 86.4815 180.398C87.1293 182.068 87.4531 184.125 87.4531 186.568V188.273H67.2713V184.795H83.3622C83.3622 183.318 83.0668 182 82.4759 180.841C81.8963 179.682 81.0668 178.767 79.9872 178.097C78.919 177.426 77.6577 177.091 76.2031 177.091C74.6009 177.091 73.2145 177.489 72.044 178.284C70.8849 179.068 69.9929 180.091 69.3679 181.352C68.7429 182.614 68.4304 183.966 68.4304 185.409V187.727C68.4304 189.705 68.7713 191.381 69.4531 192.756C70.1463 194.119 71.1065 195.159 72.3338 195.875C73.5611 196.58 74.9872 196.932 76.6122 196.932C77.669 196.932 78.6236 196.784 79.4759 196.489C80.3395 196.182 81.0838 195.727 81.7088 195.125C82.3338 194.511 82.8168 193.75 83.1577 192.841L87.044 193.932C86.6349 195.25 85.9474 196.409 84.9815 197.409C84.0156 198.398 82.8224 199.17 81.402 199.727C79.9815 200.273 78.3849 200.545 76.6122 200.545ZM93.5724 209.818V173.818H97.4588V177.977H97.9361C98.2315 177.523 98.6406 176.943 99.1634 176.239C99.6974 175.523 100.459 174.886 101.447 174.33C102.447 173.761 103.8 173.477 105.504 173.477C107.709 173.477 109.652 174.028 111.334 175.131C113.016 176.233 114.328 177.795 115.271 179.818C116.214 181.841 116.686 184.227 116.686 186.977C116.686 189.75 116.214 192.153 115.271 194.188C114.328 196.21 113.021 197.778 111.351 198.892C109.68 199.994 107.754 200.545 105.572 200.545C103.891 200.545 102.544 200.267 101.533 199.71C100.521 199.142 99.7429 198.5 99.1974 197.784C98.652 197.057 98.2315 196.455 97.9361 195.977H97.5952V209.818H93.5724ZM97.527 186.909C97.527 188.886 97.8168 190.631 98.3963 192.142C98.9759 193.642 99.8224 194.818 100.936 195.67C102.05 196.511 103.413 196.932 105.027 196.932C106.709 196.932 108.112 196.489 109.237 195.602C110.374 194.705 111.226 193.5 111.794 191.989C112.374 190.466 112.663 188.773 112.663 186.909C112.663 185.068 112.379 183.409 111.811 181.932C111.254 180.443 110.408 179.267 109.271 178.403C108.146 177.528 106.732 177.091 105.027 177.091C103.391 177.091 102.016 177.506 100.902 178.335C99.7884 179.153 98.9474 180.301 98.3793 181.778C97.8111 183.244 97.527 184.955 97.527 186.909ZM133.459 200.545C131.004 200.545 128.891 199.966 127.118 198.807C125.345 197.648 123.982 196.051 123.027 194.017C122.072 191.983 121.595 189.659 121.595 187.045C121.595 184.386 122.084 182.04 123.061 180.006C124.05 177.96 125.425 176.364 127.186 175.216C128.959 174.057 131.027 173.477 133.391 173.477C135.232 173.477 136.891 173.818 138.368 174.5C139.845 175.182 141.055 176.136 141.999 177.364C142.942 178.591 143.527 180.023 143.754 181.659H139.732C139.425 180.466 138.743 179.409 137.686 178.489C136.641 177.557 135.232 177.091 133.459 177.091C131.891 177.091 130.516 177.5 129.334 178.318C128.163 179.125 127.249 180.267 126.589 181.744C125.942 183.21 125.618 184.932 125.618 186.909C125.618 188.932 125.936 190.693 126.572 192.193C127.22 193.693 128.129 194.858 129.3 195.688C130.482 196.517 131.868 196.932 133.459 196.932C134.504 196.932 135.453 196.75 136.305 196.386C137.158 196.023 137.879 195.5 138.47 194.818C139.061 194.136 139.482 193.318 139.732 192.364H143.754C143.527 193.909 142.964 195.301 142.067 196.54C141.18 197.767 140.004 198.744 138.538 199.472C137.084 200.188 135.391 200.545 133.459 200.545ZM153.658 194.068L166.271 173.818H170.908V200H166.885V179.75L154.339 200H149.635V173.818H153.658V194.068ZM194.026 200V177.5H187.071C185.503 177.5 184.27 177.864 183.372 178.591C182.474 179.318 182.026 180.318 182.026 181.591C182.026 182.841 182.429 183.824 183.236 184.54C184.054 185.256 185.173 185.614 186.594 185.614H195.048V189.364H186.594C184.821 189.364 183.293 189.051 182.009 188.426C180.724 187.801 179.736 186.909 179.043 185.75C178.349 184.58 178.003 183.193 178.003 181.591C178.003 179.977 178.366 178.591 179.094 177.432C179.821 176.273 180.861 175.381 182.213 174.756C183.577 174.131 185.196 173.818 187.071 173.818H197.844V200H194.026ZM176.571 200L184.003 186.977H188.366L180.935 200H176.571Z" fill="white"/>
<g clip-path="url(#clip0_3_155)">
<path d="M271.459 361C271.373 361.001 271.288 360.98 271.208 360.941C271.129 360.901 271.056 360.842 270.995 360.768C270.934 360.694 270.885 360.605 270.852 360.508C270.819 360.41 270.802 360.306 270.802 360.2C270.802 360.095 270.819 359.99 270.852 359.893C270.885 359.795 270.934 359.707 270.995 359.632L276.421 353.002L270.995 346.371C270.872 346.22 270.803 346.016 270.803 345.803C270.803 345.59 270.872 345.386 270.995 345.235C271.118 345.085 271.285 345 271.459 345C271.633 345 271.8 345.085 271.923 345.235L277.807 352.434C277.868 352.508 277.916 352.597 277.95 352.694C277.983 352.791 278 352.896 278 353.002C278 353.107 277.983 353.212 277.95 353.309C277.916 353.407 277.868 353.495 277.807 353.569L271.923 360.768C271.862 360.842 271.79 360.901 271.71 360.941C271.63 360.98 271.545 361.001 271.459 361Z" fill="white"/>
<path d="M277.343 353.801H261.654C261.48 353.801 261.314 353.717 261.191 353.567C261.069 353.417 261 353.214 261 353.002C261 352.789 261.069 352.586 261.191 352.436C261.314 352.286 261.48 352.202 261.654 352.202H277.343C277.516 352.202 277.682 352.286 277.805 352.436C277.927 352.586 277.996 352.789 277.996 353.002C277.996 353.214 277.927 353.417 277.805 353.567C277.682 353.717 277.516 353.801 277.343 353.801Z" fill="white"/>
</g>
<defs>
<clipPath id="clip0_3_155">
<rect width="32" height="32" fill="white" transform="translate(261 337)"/>
</clipPath>
</defs>
</svg>
