<svg width="80" height="80" viewBox="0 0 80 80" fill="none" xmlns="http://www.w3.org/2000/svg">
<path fill-rule="evenodd" clip-rule="evenodd" d="M53.3244 60.0928C47.6589 64.2757 65.2761 46.3059 60.2629 53.1368C60.3884 53.1268 60.1558 53.5055 59.3764 54.4549C59.3764 54.4549 72.7648 67.7195 79.337 74.4703C81.6186 76.9313 77.502 81.8434 74.7052 79.2789C68.7536 73.5193 54.671 59.2052 54.6492 59.1818L53.3244 60.0928Z" fill="#0041BF"/>
<path d="M33.6516 66.8003C42.2661 66.7168 50.7937 63.1579 56.9259 57.1129C64.2089 49.9333 67.9592 39.3116 66.6511 29.1705C64.4096 11.793 50.0878 0 33.4375 0C20.7867 0 8.4922 7.89369 3.09935 19.3396C-1.02893 28.1026 -1.0373 38.6826 3.09935 47.4606C8.45373 58.8265 20.5475 66.6785 33.2217 66.8003C33.3656 66.8003 33.5094 66.8003 33.6516 66.8003ZM33.2569 61.2325C20.3919 61.109 8.3885 51.1847 6.00152 38.4607C4.31876 29.4908 7.49526 19.7835 14.1125 13.4131C21.8372 5.97325 33.9795 3.48217 44.076 7.69848C53.1087 11.471 59.8699 20.2306 61.116 29.8813C62.1832 38.1537 59.2075 46.8233 53.3596 52.7948C48.2294 58.0339 41.035 61.1607 33.6165 61.2325C33.4961 61.2325 33.3773 61.2325 33.2569 61.2325Z" fill="#0041BF"/>
</svg>
