<svg width="450" height="400" viewBox="0 0 450 400" fill="none" xmlns="http://www.w3.org/2000/svg">
<rect width="450" height="400" rx="15" fill="#0041BF"/>
<path d="M42.2273 84V49.0909H54.0227C56.7614 49.0909 59 49.5852 60.7386 50.5739C62.4886 51.5511 63.7841 52.875 64.625 54.5455C65.4659 56.2159 65.8864 58.0795 65.8864 60.1364C65.8864 62.1932 65.4659 64.0625 64.625 65.7443C63.7955 67.4261 62.5114 68.767 60.7727 69.767C59.0341 70.7557 56.8068 71.25 54.0909 71.25H45.6364V67.5H53.9545C55.8295 67.5 57.3352 67.1761 58.4716 66.5284C59.608 65.8807 60.4318 65.0057 60.9432 63.9034C61.4659 62.7898 61.7273 61.5341 61.7273 60.1364C61.7273 58.7386 61.4659 57.4886 60.9432 56.3864C60.4318 55.2841 59.6023 54.4205 58.4545 53.7955C57.3068 53.1591 55.7841 52.8409 53.8864 52.8409H46.4545V84H42.2273ZM82.5057 84.5455C80.142 84.5455 78.0682 83.983 76.2841 82.858C74.5114 81.733 73.125 80.1591 72.125 78.1364C71.1364 76.1136 70.642 73.75 70.642 71.0455C70.642 68.3182 71.1364 65.9375 72.125 63.9034C73.125 61.8693 74.5114 60.2898 76.2841 59.1648C78.0682 58.0398 80.142 57.4773 82.5057 57.4773C84.8693 57.4773 86.9375 58.0398 88.7102 59.1648C90.4943 60.2898 91.8807 61.8693 92.8693 63.9034C93.8693 65.9375 94.3693 68.3182 94.3693 71.0455C94.3693 73.75 93.8693 76.1136 92.8693 78.1364C91.8807 80.1591 90.4943 81.733 88.7102 82.858C86.9375 83.983 84.8693 84.5455 82.5057 84.5455ZM82.5057 80.9318C84.3011 80.9318 85.7784 80.4716 86.9375 79.5511C88.0966 78.6307 88.9545 77.4205 89.5114 75.9205C90.0682 74.4205 90.3466 72.7955 90.3466 71.0455C90.3466 69.2955 90.0682 67.6648 89.5114 66.1534C88.9545 64.642 88.0966 63.4205 86.9375 62.4886C85.7784 61.5568 84.3011 61.0909 82.5057 61.0909C80.7102 61.0909 79.233 61.5568 78.0739 62.4886C76.9148 63.4205 76.0568 64.642 75.5 66.1534C74.9432 67.6648 74.6648 69.2955 74.6648 71.0455C74.6648 72.7955 74.9432 74.4205 75.5 75.9205C76.0568 77.4205 76.9148 78.6307 78.0739 79.5511C79.233 80.4716 80.7102 80.9318 82.5057 80.9318ZM102.163 93.8182C101.482 93.8182 100.874 93.7614 100.339 93.6477C99.8054 93.5455 99.4361 93.4432 99.2315 93.3409L100.254 89.7955C101.232 90.0455 102.095 90.1364 102.845 90.0682C103.595 90 104.26 89.6648 104.839 89.0625C105.43 88.4716 105.97 87.5114 106.459 86.1818L107.209 84.1364L97.527 57.8182H101.891L109.118 78.6818H109.391L116.618 57.8182H120.982L109.868 87.8182C109.368 89.1705 108.749 90.2898 108.01 91.1761C107.271 92.0739 106.413 92.7386 105.436 93.1705C104.47 93.6023 103.379 93.8182 102.163 93.8182ZM140.609 78.5455L149.746 57.8182H153.564L142.246 84H138.973L127.859 57.8182H131.609L140.609 78.5455ZM130.314 57.8182V84H126.291V57.8182H130.314ZM150.905 84V57.8182H154.928V84H150.905ZM166.314 78.0682L178.928 57.8182H183.564V84H179.541V63.75L166.996 84H162.291V57.8182H166.314V78.0682ZM208.455 69.0682V72.8182H194V69.0682H208.455ZM194.955 57.8182V84H190.932V57.8182H194.955ZM211.523 57.8182V84H207.5V57.8182H211.523ZM235.028 57.8182V61.5682H222.892V84H218.869V57.8182H235.028ZM265.037 84.5455C262.582 84.5455 260.469 83.9659 258.696 82.8068C256.923 81.6477 255.56 80.0511 254.605 78.017C253.651 75.983 253.173 73.6591 253.173 71.0455C253.173 68.3864 253.662 66.0398 254.639 64.0057C255.628 61.9602 257.003 60.3636 258.764 59.2159C260.537 58.0568 262.605 57.4773 264.969 57.4773C266.81 57.4773 268.469 57.8182 269.946 58.5C271.423 59.1818 272.634 60.1364 273.577 61.3636C274.52 62.5909 275.105 64.0227 275.332 65.6591H271.31C271.003 64.4659 270.321 63.4091 269.264 62.4886C268.219 61.5568 266.81 61.0909 265.037 61.0909C263.469 61.0909 262.094 61.5 260.912 62.3182C259.741 63.125 258.827 64.267 258.168 65.7443C257.52 67.2102 257.196 68.9318 257.196 70.9091C257.196 72.9318 257.514 74.6932 258.151 76.1932C258.798 77.6932 259.707 78.858 260.878 79.6875C262.06 80.517 263.446 80.9318 265.037 80.9318C266.082 80.9318 267.031 80.75 267.884 80.3864C268.736 80.0227 269.457 79.5 270.048 78.8182C270.639 78.1364 271.06 77.3182 271.31 76.3636H275.332C275.105 77.9091 274.543 79.3011 273.645 80.5398C272.759 81.767 271.582 82.7443 270.116 83.4716C268.662 84.1875 266.969 84.5455 265.037 84.5455ZM52.3182 142.545C49.9545 142.545 47.8807 141.983 46.0966 140.858C44.3239 139.733 42.9375 138.159 41.9375 136.136C40.9489 134.114 40.4545 131.75 40.4545 129.045C40.4545 126.318 40.9489 123.937 41.9375 121.903C42.9375 119.869 44.3239 118.29 46.0966 117.165C47.8807 116.04 49.9545 115.477 52.3182 115.477C54.6818 115.477 56.75 116.04 58.5227 117.165C60.3068 118.29 61.6932 119.869 62.6818 121.903C63.6818 123.937 64.1818 126.318 64.1818 129.045C64.1818 131.75 63.6818 134.114 62.6818 136.136C61.6932 138.159 60.3068 139.733 58.5227 140.858C56.75 141.983 54.6818 142.545 52.3182 142.545ZM52.3182 138.932C54.1136 138.932 55.5909 138.472 56.75 137.551C57.9091 136.631 58.767 135.42 59.3239 133.92C59.8807 132.42 60.1591 130.795 60.1591 129.045C60.1591 127.295 59.8807 125.665 59.3239 124.153C58.767 122.642 57.9091 121.42 56.75 120.489C55.5909 119.557 54.1136 119.091 52.3182 119.091C50.5227 119.091 49.0455 119.557 47.8864 120.489C46.7273 121.42 45.8693 122.642 45.3125 124.153C44.7557 125.665 44.4773 127.295 44.4773 129.045C44.4773 130.795 44.7557 132.42 45.3125 133.92C45.8693 135.42 46.7273 136.631 47.8864 137.551C49.0455 138.472 50.5227 138.932 52.3182 138.932ZM70.3224 142V115.818H90.9134V142H86.8906V119.568H74.3452V142H70.3224ZM109.237 142.545C106.714 142.545 104.538 141.989 102.709 140.875C100.891 139.75 99.4872 138.182 98.4986 136.17C97.5213 134.148 97.0327 131.795 97.0327 129.114C97.0327 126.432 97.5213 124.068 98.4986 122.023C99.4872 119.966 100.862 118.364 102.624 117.216C104.396 116.057 106.464 115.477 108.828 115.477C110.192 115.477 111.538 115.705 112.868 116.159C114.197 116.614 115.408 117.352 116.499 118.375C117.589 119.386 118.459 120.727 119.107 122.398C119.754 124.068 120.078 126.125 120.078 128.568V130.273H99.8963V126.795H115.987C115.987 125.318 115.692 124 115.101 122.841C114.521 121.682 113.692 120.767 112.612 120.097C111.544 119.426 110.283 119.091 108.828 119.091C107.226 119.091 105.839 119.489 104.669 120.284C103.51 121.068 102.618 122.091 101.993 123.352C101.368 124.614 101.055 125.966 101.055 127.409V129.727C101.055 131.705 101.396 133.381 102.078 134.756C102.771 136.119 103.732 137.159 104.959 137.875C106.186 138.58 107.612 138.932 109.237 138.932C110.294 138.932 111.249 138.784 112.101 138.489C112.964 138.182 113.709 137.727 114.334 137.125C114.959 136.511 115.442 135.75 115.783 134.841L119.669 135.932C119.26 137.25 118.572 138.409 117.607 139.409C116.641 140.398 115.447 141.17 114.027 141.727C112.607 142.273 111.01 142.545 109.237 142.545ZM126.197 151.818V115.818H130.084V119.977H130.561C130.857 119.523 131.266 118.943 131.788 118.239C132.322 117.523 133.084 116.886 134.072 116.33C135.072 115.761 136.425 115.477 138.129 115.477C140.334 115.477 142.277 116.028 143.959 117.131C145.641 118.233 146.953 119.795 147.896 121.818C148.839 123.841 149.311 126.227 149.311 128.977C149.311 131.75 148.839 134.153 147.896 136.188C146.953 138.21 145.646 139.778 143.976 140.892C142.305 141.994 140.379 142.545 138.197 142.545C136.516 142.545 135.169 142.267 134.158 141.71C133.146 141.142 132.368 140.5 131.822 139.784C131.277 139.057 130.857 138.455 130.561 137.977H130.22V151.818H126.197ZM130.152 128.909C130.152 130.886 130.442 132.631 131.021 134.142C131.601 135.642 132.447 136.818 133.561 137.67C134.675 138.511 136.038 138.932 137.652 138.932C139.334 138.932 140.737 138.489 141.862 137.602C142.999 136.705 143.851 135.5 144.419 133.989C144.999 132.466 145.288 130.773 145.288 128.909C145.288 127.068 145.004 125.409 144.436 123.932C143.879 122.443 143.033 121.267 141.896 120.403C140.771 119.528 139.357 119.091 137.652 119.091C136.016 119.091 134.641 119.506 133.527 120.335C132.413 121.153 131.572 122.301 131.004 123.778C130.436 125.244 130.152 126.955 130.152 128.909ZM163.152 142.614C161.493 142.614 159.987 142.301 158.635 141.676C157.283 141.04 156.209 140.125 155.413 138.932C154.618 137.727 154.22 136.273 154.22 134.568C154.22 133.068 154.516 131.852 155.107 130.92C155.697 129.977 156.487 129.239 157.476 128.705C158.464 128.17 159.555 127.773 160.749 127.511C161.953 127.239 163.163 127.023 164.379 126.864C165.97 126.659 167.26 126.506 168.249 126.403C169.249 126.29 169.976 126.102 170.43 125.841C170.896 125.58 171.129 125.125 171.129 124.477V124.341C171.129 122.659 170.669 121.352 169.749 120.42C168.839 119.489 167.459 119.023 165.607 119.023C163.686 119.023 162.18 119.443 161.089 120.284C159.999 121.125 159.232 122.023 158.788 122.977L154.97 121.614C155.652 120.023 156.561 118.784 157.697 117.898C158.845 117 160.095 116.375 161.447 116.023C162.811 115.659 164.152 115.477 165.47 115.477C166.311 115.477 167.277 115.58 168.368 115.784C169.47 115.977 170.533 116.381 171.555 116.994C172.589 117.608 173.447 118.534 174.129 119.773C174.811 121.011 175.152 122.67 175.152 124.75V142H171.129V138.455H170.925C170.652 139.023 170.197 139.631 169.561 140.278C168.925 140.926 168.078 141.477 167.021 141.932C165.964 142.386 164.675 142.614 163.152 142.614ZM163.766 139C165.357 139 166.697 138.688 167.788 138.062C168.891 137.438 169.72 136.631 170.277 135.642C170.845 134.653 171.129 133.614 171.129 132.523V128.841C170.959 129.045 170.584 129.233 170.004 129.403C169.436 129.562 168.777 129.705 168.027 129.83C167.288 129.943 166.567 130.045 165.862 130.136C165.169 130.216 164.607 130.284 164.175 130.341C163.129 130.477 162.152 130.699 161.243 131.006C160.345 131.301 159.618 131.75 159.061 132.352C158.516 132.943 158.243 133.75 158.243 134.773C158.243 136.17 158.76 137.227 159.794 137.943C160.839 138.648 162.163 139 163.766 139ZM178.932 119.568V115.818H200.205V119.568H191.614V142H187.591V119.568H178.932ZM215.349 142.545C212.986 142.545 210.912 141.983 209.128 140.858C207.355 139.733 205.969 138.159 204.969 136.136C203.98 134.114 203.486 131.75 203.486 129.045C203.486 126.318 203.98 123.937 204.969 121.903C205.969 119.869 207.355 118.29 209.128 117.165C210.912 116.04 212.986 115.477 215.349 115.477C217.713 115.477 219.781 116.04 221.554 117.165C223.338 118.29 224.724 119.869 225.713 121.903C226.713 123.937 227.213 126.318 227.213 129.045C227.213 131.75 226.713 134.114 225.713 136.136C224.724 138.159 223.338 139.733 221.554 140.858C219.781 141.983 217.713 142.545 215.349 142.545ZM215.349 138.932C217.145 138.932 218.622 138.472 219.781 137.551C220.94 136.631 221.798 135.42 222.355 133.92C222.912 132.42 223.19 130.795 223.19 129.045C223.19 127.295 222.912 125.665 222.355 124.153C221.798 122.642 220.94 121.42 219.781 120.489C218.622 119.557 217.145 119.091 215.349 119.091C213.554 119.091 212.077 119.557 210.918 120.489C209.759 121.42 208.901 122.642 208.344 124.153C207.787 125.665 207.509 127.295 207.509 129.045C207.509 130.795 207.787 132.42 208.344 133.92C208.901 135.42 209.759 136.631 210.918 137.551C212.077 138.472 213.554 138.932 215.349 138.932ZM233.354 151.818V115.818H237.24V119.977H237.717C238.013 119.523 238.422 118.943 238.945 118.239C239.479 117.523 240.24 116.886 241.229 116.33C242.229 115.761 243.581 115.477 245.286 115.477C247.49 115.477 249.433 116.028 251.115 117.131C252.797 118.233 254.109 119.795 255.053 121.818C255.996 123.841 256.467 126.227 256.467 128.977C256.467 131.75 255.996 134.153 255.053 136.188C254.109 138.21 252.803 139.778 251.132 140.892C249.462 141.994 247.536 142.545 245.354 142.545C243.672 142.545 242.325 142.267 241.314 141.71C240.303 141.142 239.524 140.5 238.979 139.784C238.433 139.057 238.013 138.455 237.717 137.977H237.376V151.818H233.354ZM237.308 128.909C237.308 130.886 237.598 132.631 238.178 134.142C238.757 135.642 239.604 136.818 240.717 137.67C241.831 138.511 243.195 138.932 244.808 138.932C246.49 138.932 247.893 138.489 249.018 137.602C250.155 136.705 251.007 135.5 251.575 133.989C252.155 132.466 252.445 130.773 252.445 128.909C252.445 127.068 252.161 125.409 251.592 123.932C251.036 122.443 250.189 121.267 249.053 120.403C247.928 119.528 246.513 119.091 244.808 119.091C243.172 119.091 241.797 119.506 240.683 120.335C239.57 121.153 238.729 122.301 238.161 123.778C237.592 125.244 237.308 126.955 237.308 128.909ZM270.308 142.614C268.649 142.614 267.143 142.301 265.791 141.676C264.439 141.04 263.365 140.125 262.57 138.932C261.774 137.727 261.376 136.273 261.376 134.568C261.376 133.068 261.672 131.852 262.263 130.92C262.854 129.977 263.643 129.239 264.632 128.705C265.621 128.17 266.712 127.773 267.905 127.511C269.109 127.239 270.32 127.023 271.536 126.864C273.126 126.659 274.416 126.506 275.405 126.403C276.405 126.29 277.132 126.102 277.587 125.841C278.053 125.58 278.286 125.125 278.286 124.477V124.341C278.286 122.659 277.825 121.352 276.905 120.42C275.996 119.489 274.615 119.023 272.763 119.023C270.842 119.023 269.337 119.443 268.246 120.284C267.155 121.125 266.388 122.023 265.945 122.977L262.126 121.614C262.808 120.023 263.717 118.784 264.854 117.898C266.001 117 267.251 116.375 268.604 116.023C269.967 115.659 271.308 115.477 272.626 115.477C273.467 115.477 274.433 115.58 275.524 115.784C276.626 115.977 277.689 116.381 278.712 116.994C279.746 117.608 280.604 118.534 281.286 119.773C281.967 121.011 282.308 122.67 282.308 124.75V142H278.286V138.455H278.081C277.808 139.023 277.354 139.631 276.717 140.278C276.081 140.926 275.234 141.477 274.178 141.932C273.121 142.386 271.831 142.614 270.308 142.614ZM270.922 139C272.513 139 273.854 138.688 274.945 138.062C276.047 137.438 276.876 136.631 277.433 135.642C278.001 134.653 278.286 133.614 278.286 132.523V128.841C278.115 129.045 277.74 129.233 277.161 129.403C276.592 129.562 275.933 129.705 275.183 129.83C274.445 129.943 273.723 130.045 273.018 130.136C272.325 130.216 271.763 130.284 271.331 130.341C270.286 130.477 269.308 130.699 268.399 131.006C267.501 131.301 266.774 131.75 266.217 132.352C265.672 132.943 265.399 133.75 265.399 134.773C265.399 136.17 265.916 137.227 266.95 137.943C267.996 138.648 269.32 139 270.922 139ZM303.969 136.545L313.105 115.818H316.923L305.605 142H302.332L291.219 115.818H294.969L303.969 136.545ZM293.673 115.818V142H289.651V115.818H293.673ZM314.264 142V115.818H318.287V142H314.264ZM329.673 136.068L342.287 115.818H346.923V142H342.901V121.75L330.355 142H325.651V115.818H329.673V136.068ZM63.5682 181.114V184.864H49.1818V181.114H63.5682ZM40.8636 189.091H45.2273C45.6023 191.545 46.4318 193.432 47.7159 194.75C49 196.068 51.0568 196.727 53.8864 196.727C55.8864 196.727 57.5568 196.165 58.8977 195.04C60.25 193.915 61.2614 192.426 61.9318 190.574C62.6136 188.722 62.9545 186.705 62.9545 184.523V180.636C62.9545 178.227 62.5739 176.108 61.8125 174.278C61.0625 172.438 59.9773 171.006 58.5568 169.983C57.1477 168.949 55.4545 168.432 53.4773 168.432C51.75 168.432 50.3182 168.739 49.1818 169.352C48.0455 169.966 47.1591 170.847 46.5227 171.994C45.8864 173.142 45.4545 174.523 45.2273 176.136H40.8636C41.0909 173.909 41.6989 171.932 42.6875 170.205C43.6875 168.466 45.0795 167.102 46.8636 166.114C48.6591 165.114 50.8636 164.614 53.4773 164.614C56.3182 164.614 58.7727 165.278 60.8409 166.608C62.9091 167.926 64.5057 169.784 65.6307 172.182C66.7557 174.568 67.3182 177.364 67.3182 180.568V184.591C67.3182 187.795 66.7614 190.591 65.6477 192.977C64.5341 195.352 62.9716 197.199 60.9602 198.517C58.9489 199.824 56.5909 200.477 53.8864 200.477C51.1136 200.477 48.8068 199.977 46.9659 198.977C45.1364 197.966 43.7216 196.602 42.7216 194.886C41.733 193.159 41.1136 191.227 40.8636 189.091ZM71.4304 208.455V196.25H73.6804C74.4531 195.545 75.1804 194.551 75.8622 193.267C76.5554 191.972 77.1406 190.244 77.6179 188.085C78.1065 185.915 78.4304 183.159 78.5895 179.818L79.3395 165.091H100.067V196.25H104.089V208.386H100.067V200H75.4531V208.455H71.4304ZM78.7259 196.25H96.044V168.841H83.1577L82.6122 179.818C82.4759 182.364 82.2372 184.67 81.8963 186.739C81.5554 188.795 81.1179 190.619 80.5838 192.21C80.0497 193.79 79.4304 195.136 78.7259 196.25ZM139.932 182.545C139.932 186.227 139.267 189.409 137.938 192.091C136.608 194.773 134.784 196.841 132.466 198.295C130.148 199.75 127.5 200.477 124.523 200.477C121.545 200.477 118.898 199.75 116.58 198.295C114.261 196.841 112.438 194.773 111.108 192.091C109.778 189.409 109.114 186.227 109.114 182.545C109.114 178.864 109.778 175.682 111.108 173C112.438 170.318 114.261 168.25 116.58 166.795C118.898 165.341 121.545 164.614 124.523 164.614C127.5 164.614 130.148 165.341 132.466 166.795C134.784 168.25 136.608 170.318 137.938 173C139.267 175.682 139.932 178.864 139.932 182.545ZM135.841 182.545C135.841 179.523 135.335 176.972 134.324 174.892C133.324 172.812 131.966 171.239 130.25 170.17C128.545 169.102 126.636 168.568 124.523 168.568C122.409 168.568 120.494 169.102 118.778 170.17C117.074 171.239 115.716 172.812 114.705 174.892C113.705 176.972 113.205 179.523 113.205 182.545C113.205 185.568 113.705 188.119 114.705 190.199C115.716 192.278 117.074 193.852 118.778 194.92C120.494 195.989 122.409 196.523 124.523 196.523C126.636 196.523 128.545 195.989 130.25 194.92C131.966 193.852 133.324 192.278 134.324 190.199C135.335 188.119 135.841 185.568 135.841 182.545Z" fill="white"/>
<path d="M61.2273 338.727V362H58.4091V341.227H46.6818V362H43.8636V338.727H61.2273ZM73.6392 362.364C72.0634 362.364 70.6809 361.989 69.4915 361.239C68.3097 360.489 67.3854 359.439 66.7188 358.091C66.0597 356.742 65.7301 355.167 65.7301 353.364C65.7301 351.545 66.0597 349.958 66.7188 348.602C67.3854 347.246 68.3097 346.193 69.4915 345.443C70.6809 344.693 72.0634 344.318 73.6392 344.318C75.215 344.318 76.5938 344.693 77.7756 345.443C78.965 346.193 79.8892 347.246 80.5483 348.602C81.215 349.958 81.5483 351.545 81.5483 353.364C81.5483 355.167 81.215 356.742 80.5483 358.091C79.8892 359.439 78.965 360.489 77.7756 361.239C76.5938 361.989 75.215 362.364 73.6392 362.364ZM73.6392 359.955C74.8362 359.955 75.821 359.648 76.5938 359.034C77.3665 358.42 77.9384 357.614 78.3097 356.614C78.6809 355.614 78.8665 354.53 78.8665 353.364C78.8665 352.197 78.6809 351.11 78.3097 350.102C77.9384 349.095 77.3665 348.28 76.5938 347.659C75.821 347.038 74.8362 346.727 73.6392 346.727C72.4422 346.727 71.4574 347.038 70.6847 347.659C69.9119 348.28 69.34 349.095 68.9688 350.102C68.5975 351.11 68.4119 352.197 68.4119 353.364C68.4119 354.53 68.5975 355.614 68.9688 356.614C69.34 357.614 69.9119 358.42 70.6847 359.034C71.4574 359.648 72.4422 359.955 73.6392 359.955ZM83.7784 367V359.5H85.233C85.589 359.129 85.8958 358.727 86.1534 358.295C86.411 357.864 86.6345 357.352 86.8239 356.761C87.0208 356.163 87.1875 355.436 87.3239 354.58C87.4602 353.716 87.5814 352.674 87.6875 351.455L88.2784 344.545H99.3693V359.5H102.051V367H99.3693V362H86.4602V367H83.7784ZM88.2784 359.5H96.6875V347.045H90.7784L90.3239 351.455C90.1345 353.28 89.8996 354.875 89.6193 356.239C89.339 357.602 88.892 358.689 88.2784 359.5ZM105.611 368.545V344.545H108.202V347.318H108.52C108.717 347.015 108.99 346.629 109.338 346.159C109.694 345.682 110.202 345.258 110.861 344.886C111.527 344.508 112.429 344.318 113.565 344.318C115.035 344.318 116.33 344.686 117.452 345.42C118.573 346.155 119.448 347.197 120.077 348.545C120.705 349.894 121.02 351.485 121.02 353.318C121.02 355.167 120.705 356.769 120.077 358.125C119.448 359.473 118.577 360.519 117.463 361.261C116.349 361.996 115.065 362.364 113.611 362.364C112.49 362.364 111.592 362.178 110.918 361.807C110.243 361.428 109.724 361 109.361 360.523C108.997 360.038 108.717 359.636 108.52 359.318H108.293V368.545H105.611ZM108.247 353.273C108.247 354.591 108.44 355.754 108.827 356.761C109.213 357.761 109.777 358.545 110.52 359.114C111.262 359.674 112.171 359.955 113.247 359.955C114.368 359.955 115.304 359.659 116.054 359.068C116.812 358.47 117.38 357.667 117.759 356.659C118.145 355.644 118.338 354.515 118.338 353.273C118.338 352.045 118.149 350.939 117.77 349.955C117.399 348.962 116.834 348.178 116.077 347.602C115.327 347.019 114.384 346.727 113.247 346.727C112.156 346.727 111.24 347.004 110.497 347.557C109.755 348.102 109.194 348.867 108.815 349.852C108.437 350.83 108.247 351.97 108.247 353.273ZM132.202 362.364C130.626 362.364 129.243 361.989 128.054 361.239C126.872 360.489 125.948 359.439 125.281 358.091C124.622 356.742 124.293 355.167 124.293 353.364C124.293 351.545 124.622 349.958 125.281 348.602C125.948 347.246 126.872 346.193 128.054 345.443C129.243 344.693 130.626 344.318 132.202 344.318C133.777 344.318 135.156 344.693 136.338 345.443C137.527 346.193 138.452 347.246 139.111 348.602C139.777 349.958 140.111 351.545 140.111 353.364C140.111 355.167 139.777 356.742 139.111 358.091C138.452 359.439 137.527 360.489 136.338 361.239C135.156 361.989 133.777 362.364 132.202 362.364ZM132.202 359.955C133.399 359.955 134.384 359.648 135.156 359.034C135.929 358.42 136.501 357.614 136.872 356.614C137.243 355.614 137.429 354.53 137.429 353.364C137.429 352.197 137.243 351.11 136.872 350.102C136.501 349.095 135.929 348.28 135.156 347.659C134.384 347.038 133.399 346.727 132.202 346.727C131.005 346.727 130.02 347.038 129.247 347.659C128.474 348.28 127.902 349.095 127.531 350.102C127.16 351.11 126.974 352.197 126.974 353.364C126.974 354.53 127.16 355.614 127.531 356.614C127.902 357.614 128.474 358.42 129.247 359.034C130.02 359.648 131.005 359.955 132.202 359.955ZM157.159 338L158.523 339.636C157.992 340.152 157.379 340.511 156.682 340.716C155.985 340.92 155.197 341.045 154.318 341.091C153.439 341.136 152.462 341.182 151.386 341.227C150.174 341.273 149.17 341.568 148.375 342.114C147.58 342.659 146.966 343.447 146.534 344.477C146.102 345.508 145.826 346.773 145.705 348.273H145.932C146.523 347.182 147.341 346.379 148.386 345.864C149.432 345.348 150.553 345.091 151.75 345.091C153.114 345.091 154.341 345.409 155.432 346.045C156.523 346.682 157.386 347.625 158.023 348.875C158.659 350.125 158.977 351.667 158.977 353.5C158.977 355.326 158.652 356.902 158 358.227C157.356 359.553 156.451 360.576 155.284 361.295C154.125 362.008 152.765 362.364 151.205 362.364C149.644 362.364 148.277 361.996 147.102 361.261C145.928 360.519 145.015 359.42 144.364 357.966C143.712 356.504 143.386 354.697 143.386 352.545V350.682C143.386 346.795 144.045 343.848 145.364 341.841C146.689 339.833 148.682 338.795 151.341 338.727C152.28 338.697 153.117 338.689 153.852 338.705C154.587 338.72 155.227 338.686 155.773 338.602C156.318 338.519 156.78 338.318 157.159 338ZM151.205 359.955C152.258 359.955 153.163 359.689 153.92 359.159C154.686 358.629 155.273 357.883 155.682 356.92C156.091 355.951 156.295 354.811 156.295 353.5C156.295 352.227 156.087 351.144 155.67 350.25C155.261 349.356 154.674 348.674 153.909 348.205C153.144 347.735 152.227 347.5 151.159 347.5C150.379 347.5 149.678 347.633 149.057 347.898C148.436 348.163 147.905 348.553 147.466 349.068C147.027 349.583 146.686 350.212 146.443 350.955C146.208 351.697 146.083 352.545 146.068 353.5C146.068 355.455 146.527 357.019 147.443 358.193C148.36 359.367 149.614 359.955 151.205 359.955ZM174.761 352.045V354.545H165.125V352.045H174.761ZM165.761 344.545V362H163.08V344.545H165.761ZM176.807 344.545V362H174.125V344.545H176.807ZM189.023 362.364C187.341 362.364 185.89 361.992 184.67 361.25C183.458 360.5 182.523 359.455 181.864 358.114C181.212 356.765 180.886 355.197 180.886 353.409C180.886 351.621 181.212 350.045 181.864 348.682C182.523 347.311 183.439 346.242 184.614 345.477C185.795 344.705 187.174 344.318 188.75 344.318C189.659 344.318 190.557 344.47 191.443 344.773C192.33 345.076 193.136 345.568 193.864 346.25C194.591 346.924 195.17 347.818 195.602 348.932C196.034 350.045 196.25 351.417 196.25 353.045V354.182H182.795V351.864H193.523C193.523 350.879 193.326 350 192.932 349.227C192.545 348.455 191.992 347.845 191.273 347.398C190.561 346.951 189.72 346.727 188.75 346.727C187.682 346.727 186.758 346.992 185.977 347.523C185.205 348.045 184.61 348.727 184.193 349.568C183.777 350.409 183.568 351.311 183.568 352.273V353.818C183.568 355.136 183.795 356.254 184.25 357.17C184.712 358.08 185.352 358.773 186.17 359.25C186.989 359.72 187.939 359.955 189.023 359.955C189.727 359.955 190.364 359.856 190.932 359.659C191.508 359.455 192.004 359.152 192.42 358.75C192.837 358.341 193.159 357.833 193.386 357.227L195.977 357.955C195.705 358.833 195.246 359.606 194.602 360.273C193.958 360.932 193.163 361.447 192.216 361.818C191.269 362.182 190.205 362.364 189.023 362.364ZM207.648 362.364C205.966 362.364 204.515 361.992 203.295 361.25C202.083 360.5 201.148 359.455 200.489 358.114C199.837 356.765 199.511 355.197 199.511 353.409C199.511 351.621 199.837 350.045 200.489 348.682C201.148 347.311 202.064 346.242 203.239 345.477C204.42 344.705 205.799 344.318 207.375 344.318C208.284 344.318 209.182 344.47 210.068 344.773C210.955 345.076 211.761 345.568 212.489 346.25C213.216 346.924 213.795 347.818 214.227 348.932C214.659 350.045 214.875 351.417 214.875 353.045V354.182H201.42V351.864H212.148C212.148 350.879 211.951 350 211.557 349.227C211.17 348.455 210.617 347.845 209.898 347.398C209.186 346.951 208.345 346.727 207.375 346.727C206.307 346.727 205.383 346.992 204.602 347.523C203.83 348.045 203.235 348.727 202.818 349.568C202.402 350.409 202.193 351.311 202.193 352.273V353.818C202.193 355.136 202.42 356.254 202.875 357.17C203.337 358.08 203.977 358.773 204.795 359.25C205.614 359.72 206.564 359.955 207.648 359.955C208.352 359.955 208.989 359.856 209.557 359.659C210.133 359.455 210.629 359.152 211.045 358.75C211.462 358.341 211.784 357.833 212.011 357.227L214.602 357.955C214.33 358.833 213.871 359.606 213.227 360.273C212.583 360.932 211.788 361.447 210.841 361.818C209.894 362.182 208.83 362.364 207.648 362.364Z" fill="white"/>
<g clip-path="url(#clip0_3_157)">
<path d="M235.459 362C235.373 362.001 235.288 361.98 235.208 361.941C235.129 361.901 235.056 361.842 234.995 361.768C234.934 361.694 234.885 361.605 234.852 361.508C234.819 361.41 234.802 361.306 234.802 361.2C234.802 361.095 234.819 360.99 234.852 360.893C234.885 360.795 234.934 360.707 234.995 360.632L240.421 354.002L234.995 347.371C234.872 347.22 234.803 347.016 234.803 346.803C234.803 346.59 234.872 346.386 234.995 346.235C235.118 346.085 235.285 346 235.459 346C235.633 346 235.8 346.085 235.923 346.235L241.807 353.434C241.868 353.508 241.916 353.597 241.95 353.694C241.983 353.791 242 353.896 242 354.002C242 354.107 241.983 354.212 241.95 354.309C241.916 354.407 241.868 354.495 241.807 354.569L235.923 361.768C235.862 361.842 235.79 361.901 235.71 361.941C235.63 361.98 235.545 362.001 235.459 362Z" fill="white"/>
<path d="M241.343 354.801H225.654C225.48 354.801 225.314 354.717 225.191 354.567C225.069 354.417 225 354.214 225 354.002C225 353.789 225.069 353.586 225.191 353.436C225.314 353.286 225.48 353.202 225.654 353.202H241.343C241.516 353.202 241.682 353.286 241.805 353.436C241.927 353.586 241.996 353.789 241.996 354.002C241.996 354.214 241.927 354.417 241.805 354.567C241.682 354.717 241.516 354.801 241.343 354.801Z" fill="white"/>
</g>
<defs>
<clipPath id="clip0_3_157">
<rect width="32" height="32" fill="white" transform="translate(225 338)"/>
</clipPath>
</defs>
</svg>
