<svg width="150" height="150" viewBox="0 0 150 150" fill="none" xmlns="http://www.w3.org/2000/svg">
<path d="M42.656 122.751H100.561C106.487 122.751 111.305 117.931 111.305 112.004V59.6687C111.305 59.606 111.274 59.5533 111.27 59.4906C111.254 59.2368 111.206 58.9928 111.122 58.7538C111.089 58.6599 111.061 58.5659 111.018 58.4785C110.901 58.2296 110.746 58.0005 110.555 57.7912C110.52 57.7549 110.502 57.7088 110.466 57.6758C110.456 57.6676 110.453 57.656 110.444 57.6478L85.6945 33.9115C85.4621 33.6906 85.1967 33.5291 84.9148 33.3989C84.834 33.3626 84.75 33.3445 84.6659 33.3165C84.4252 33.2324 84.1829 33.1829 83.9307 33.1665C83.8698 33.1632 83.8187 33.1318 83.756 33.1318H42.656C41.1099 33.1318 39.8555 34.3862 39.8555 35.934V119.951C39.8555 121.497 41.1082 122.751 42.656 122.751ZM86.5566 42.5027L101.533 56.8665H91.6978C88.8626 56.8665 86.5566 54.5604 86.5566 51.7236V42.5027ZM45.4582 38.7346H80.9505V51.7252C80.9505 57.6511 85.7703 62.4725 91.6978 62.4725H105.701V112.005C105.701 114.842 103.394 117.148 100.561 117.148H45.4582V38.7346Z" fill="#0041BF"/>
</svg>
