<svg width="176" height="32" viewBox="0 0 176 32" fill="none" xmlns="http://www.w3.org/2000/svg">
<path d="M0.64 0.899998H3.445V24H0.64V0.899998ZM12.52 0.899998H15.985L5.986 11.724L16.48 24H13.015L2.587 11.79L12.52 0.899998ZM16.8152 16.41C16.8152 14.87 17.1562 13.506 17.8382 12.318C18.5422 11.13 19.4882 10.195 20.6762 9.513C21.8642 8.831 23.1952 8.49 24.6692 8.49C26.1652 8.49 27.4962 8.831 28.6622 9.513C29.8502 10.195 30.7852 11.13 31.4672 12.318C32.1712 13.506 32.5232 14.87 32.5232 16.41C32.5232 17.928 32.1712 19.292 31.4672 20.502C30.7852 21.69 29.8502 22.625 28.6622 23.307C27.4962 23.989 26.1652 24.33 24.6692 24.33C23.1952 24.33 21.8642 23.989 20.6762 23.307C19.4882 22.625 18.5422 21.69 17.8382 20.502C17.1562 19.292 16.8152 17.928 16.8152 16.41ZM19.4882 16.41C19.4882 17.466 19.7082 18.401 20.1482 19.215C20.6102 20.029 21.2262 20.678 21.9962 21.162C22.7882 21.624 23.6792 21.855 24.6692 21.855C25.6592 21.855 26.5392 21.624 27.3092 21.162C28.1012 20.678 28.7172 20.029 29.1572 19.215C29.6192 18.401 29.8502 17.466 29.8502 16.41C29.8502 15.354 29.6192 14.419 29.1572 13.605C28.7172 12.769 28.1012 12.12 27.3092 11.658C26.5392 11.196 25.6592 10.965 24.6692 10.965C23.6792 10.965 22.7882 11.196 21.9962 11.658C21.2262 12.12 20.6102 12.769 20.1482 13.605C19.7082 14.419 19.4882 15.354 19.4882 16.41ZM37.7008 17.235V14.76H48.9208V17.235H37.7008ZM47.2048 8.82H49.8448V24H47.2048V8.82ZM36.1498 8.82H38.7898V24H36.1498V8.82ZM52.499 8.82H61.409V11.295H52.499V8.82ZM55.634 9.48H58.274V24H55.634V9.48ZM77.102 8.82L67.202 31.26H64.232L68.39 21.855L62.582 8.82H65.717L70.535 20.7L69.446 20.568L74.132 8.82H77.102ZM82.0662 31.26H79.4262V8.82H82.0662V31.26ZM94.7712 16.41C94.7712 18.038 94.4302 19.446 93.7482 20.634C93.0662 21.822 92.1532 22.735 91.0092 23.373C89.8872 24.011 88.6332 24.33 87.2472 24.33C85.9932 24.33 84.8822 24.011 83.9142 23.373C82.9682 22.735 82.2202 21.822 81.6702 20.634C81.1422 19.446 80.8782 18.038 80.8782 16.41C80.8782 14.76 81.1422 13.352 81.6702 12.186C82.2202 10.998 82.9682 10.085 83.9142 9.447C84.8822 8.809 85.9932 8.49 87.2472 8.49C88.6332 8.49 89.8872 8.809 91.0092 9.447C92.1532 10.085 93.0662 10.998 93.7482 12.186C94.4302 13.352 94.7712 14.76 94.7712 16.41ZM92.0982 16.41C92.0982 15.244 91.8562 14.254 91.3722 13.44C90.9102 12.626 90.2832 12.01 89.4912 11.592C88.7212 11.174 87.8632 10.965 86.9172 10.965C86.1472 10.965 85.3882 11.174 84.6402 11.592C83.8922 12.01 83.2762 12.626 82.7922 13.44C82.3082 14.254 82.0662 15.244 82.0662 16.41C82.0662 17.576 82.3082 18.566 82.7922 19.38C83.2762 20.194 83.8922 20.81 84.6402 21.228C85.3882 21.646 86.1472 21.855 86.9172 21.855C87.8632 21.855 88.7212 21.646 89.4912 21.228C90.2832 20.81 90.9102 20.194 91.3722 19.38C91.8562 18.566 92.0982 17.576 92.0982 16.41Z" fill="black"/>
<path d="M98.5765 0.899998H109.962V3.54H101.382V24H98.5765V0.899998ZM123.798 8.82L113.898 31.26H110.928L115.086 21.855L109.278 8.82H112.413L117.231 20.7L116.142 20.568L120.828 8.82H123.798ZM132.572 13.374L128.117 23.01H125.147L132.572 7.665L139.997 23.01H137.027L132.572 13.374ZM139.337 24H125.972V26.97H123.167V21.525H141.977V26.97H139.337V24ZM144.626 16.41C144.626 14.87 144.967 13.506 145.649 12.318C146.353 11.13 147.299 10.195 148.487 9.513C149.675 8.831 151.006 8.49 152.48 8.49C153.976 8.49 155.307 8.831 156.473 9.513C157.661 10.195 158.596 11.13 159.278 12.318C159.982 13.506 160.334 14.87 160.334 16.41C160.334 17.928 159.982 19.292 159.278 20.502C158.596 21.69 157.661 22.625 156.473 23.307C155.307 23.989 153.976 24.33 152.48 24.33C151.006 24.33 149.675 23.989 148.487 23.307C147.299 22.625 146.353 21.69 145.649 20.502C144.967 19.292 144.626 17.928 144.626 16.41ZM147.299 16.41C147.299 17.466 147.519 18.401 147.959 19.215C148.421 20.029 149.037 20.678 149.807 21.162C150.599 21.624 151.49 21.855 152.48 21.855C153.47 21.855 154.35 21.624 155.12 21.162C155.912 20.678 156.528 20.029 156.968 19.215C157.43 18.401 157.661 17.466 157.661 16.41C157.661 15.354 157.43 14.419 156.968 13.605C156.528 12.769 155.912 12.12 155.12 11.658C154.35 11.196 153.47 10.965 152.48 10.965C151.49 10.965 150.599 11.196 149.807 11.658C149.037 12.12 148.421 12.769 147.959 13.605C147.519 14.419 147.299 15.354 147.299 16.41ZM163.795 8.82H166.435V24H163.795V8.82ZM172.045 8.82H175.345L168.745 15.09L176.005 24H172.705L165.445 15.09L172.045 8.82Z" fill="#0041BF"/>
</svg>
