<svg width="120" height="120" viewBox="0 0 120 120" fill="none" xmlns="http://www.w3.org/2000/svg">
<path d="M60 0.234375C48.1795 0.234375 36.6244 3.73957 26.796 10.3067C16.9676 16.8738 9.30728 26.2079 4.78376 37.1287C0.260239 48.0494 -0.923318 60.0663 1.38275 71.6597C3.68882 83.2531 9.38094 93.9023 17.7393 102.261C26.0977 110.619 36.7469 116.311 48.3403 118.617C59.9337 120.923 71.9506 119.74 82.8713 115.216C93.792 110.693 103.126 103.032 109.693 93.204C116.26 83.3756 119.766 71.8205 119.766 60C119.748 44.1547 113.445 28.9634 102.241 17.7591C91.0366 6.55472 75.8453 0.252256 60 0.234375ZM60 112.734C49.5701 112.734 39.3745 109.642 30.7023 103.847C22.0302 98.0525 15.2711 89.8165 11.2798 80.1806C7.28845 70.5446 6.24413 59.9415 8.2789 49.712C10.3137 39.4826 15.3361 30.0862 22.7112 22.7112C30.0862 15.3361 39.4826 10.3137 49.712 8.2789C59.9415 6.24413 70.5446 7.28845 80.1806 11.2798C89.8165 15.2711 98.0525 22.0302 103.847 30.7024C109.642 39.3745 112.734 49.5701 112.734 60C112.719 73.9812 107.158 87.3852 97.2713 97.2713C87.3851 107.158 73.9812 112.719 60 112.734ZM87.4052 75.8206C84.6255 80.6283 80.6299 84.6202 75.8196 87.3955C71.0093 90.1708 65.5536 91.6318 60.0002 91.6318C54.4467 91.6319 48.9909 90.171 44.1806 87.3958C39.3702 84.6207 35.3746 80.6289 32.5948 75.8212C32.3636 75.4216 32.2134 74.9803 32.1528 74.5227C32.0921 74.065 32.1222 73.5999 32.2413 73.1539C32.3604 72.7078 32.5662 72.2896 32.8469 71.9231C33.1276 71.5566 33.4778 71.249 33.8774 71.0178C34.277 70.7866 34.7182 70.6364 35.1759 70.5758C35.6336 70.5151 36.0987 70.5452 36.5447 70.6643C36.9908 70.7834 37.409 70.9892 37.7755 71.2699C38.142 71.5506 38.4496 71.9008 38.6808 72.3004C41.3665 76.9397 45.4871 80.5807 50.4218 82.6748C54.9328 84.583 59.9109 85.1003 64.7179 84.1603C69.5248 83.2203 73.9414 80.8659 77.4013 77.399C78.9237 75.8772 80.2408 74.1629 81.3192 72.2998C81.5501 71.8998 81.8576 71.5491 82.2242 71.2679C82.5907 70.9868 83.009 70.7806 83.4553 70.6612C83.9015 70.5418 84.367 70.5115 84.8249 70.5721C85.2829 70.6327 85.7244 70.7829 86.1243 71.0143C86.5241 71.2456 86.8745 71.5535 87.1553 71.9203C87.4361 72.2871 87.6419 72.7056 87.7608 73.152C87.8798 73.5984 87.9096 74.0638 87.8486 74.5217C87.7875 74.9796 87.6369 75.421 87.4052 75.8206ZM33.0469 48.2812C33.0469 47.1224 33.3905 45.9895 34.0344 45.026C34.6782 44.0624 35.5933 43.3114 36.664 42.8679C37.7346 42.4244 38.9127 42.3084 40.0494 42.5345C41.186 42.7605 42.23 43.3186 43.0494 44.138C43.8689 44.9575 44.4269 46.0015 44.653 47.1381C44.8791 48.2747 44.7631 49.4529 44.3196 50.5235C43.8761 51.5942 43.1251 52.5093 42.1615 53.1531C41.198 53.797 40.0651 54.1406 38.9062 54.1406C37.3528 54.1389 35.8634 53.521 34.7649 52.4225C33.6665 51.3241 33.0486 49.8347 33.0469 48.2812ZM75.2344 48.2812C75.2344 47.1224 75.578 45.9895 76.2219 45.026C76.8657 44.0624 77.7808 43.3114 78.8515 42.8679C79.9221 42.4244 81.1002 42.3084 82.2368 42.5345C83.3735 42.7605 84.4175 43.3186 85.237 44.138C86.0564 44.9575 86.6144 46.0015 86.8405 47.1381C87.0666 48.2747 86.9506 49.4529 86.5071 50.5235C86.0636 51.5942 85.3126 52.5093 84.349 53.1531C83.3855 53.797 82.2526 54.1406 81.0938 54.1406C79.5403 54.1389 78.0509 53.521 76.9525 52.4225C75.854 51.3241 75.2361 49.8347 75.2344 48.2812Z" fill="#0041BF"/>
</svg>
