<svg width="70" height="70" viewBox="0 0 70 70" fill="none" xmlns="http://www.w3.org/2000/svg">
<path d="M28.7583 52.5C28.3584 52.4987 27.963 52.4152 27.5967 52.2546C27.2305 52.0941 26.9011 51.8599 26.6292 51.5666L12.4542 36.4875C11.9243 35.9228 11.6404 35.1707 11.6651 34.3968C11.6772 34.0135 11.7648 33.6364 11.9227 33.287C12.0806 32.9376 12.3058 32.6228 12.5854 32.3604C12.865 32.098 13.1936 31.8933 13.5523 31.7579C13.911 31.6225 14.2929 31.5591 14.6761 31.5713C15.4501 31.5959 16.1826 31.927 16.7125 32.4916L28.7292 45.2958L53.2583 18.4625C53.5073 18.1525 53.8169 17.8967 54.1683 17.7108C54.5197 17.5248 54.9054 17.4127 55.3017 17.3812C55.698 17.3498 56.0966 17.3997 56.4729 17.5278C56.8492 17.656 57.1954 17.8598 57.4901 18.1266C57.7848 18.3934 58.0218 18.7177 58.1867 19.0795C58.3515 19.4413 58.4406 19.8329 58.4486 20.2304C58.4565 20.6279 58.3831 21.0228 58.2329 21.3908C58.0827 21.7589 57.8588 22.0924 57.575 22.3708L30.9167 51.5375C30.6473 51.836 30.3191 52.0756 29.9527 52.2413C29.5863 52.4069 29.1896 52.495 28.7875 52.5H28.7583Z" fill="#0041BF"/>
</svg>
